<svg xmlns="http://www.w3.org/2000/svg" width="141.7" height="141.7"><circle fill="#324A5E" cx="70.9" cy="70.9" r="70.9"/><path fill="#FFF" d="M108.5 83.8H41.4c-6 0-10.9 4.9-10.9 10.9s4.9 10.9 10.9 10.9h67.1V83.8z"/><path fill="#FF7058" d="M108.8 107.2H41.4c-6.9 0-12.5-5.6-12.5-12.5s5.6-12.5 12.5-12.5h67.4c.9 0 1.7.7 1.7 1.7 0 .9-.7 1.7-1.7 1.7H41.4c-5.1 0-9.2 4.1-9.2 9.2s4.1 9.2 9.2 9.2h67.4c.9 0 1.7.7 1.7 1.7-.1.8-.8 1.5-1.7 1.5z"/><path fill="#E6E9EE" d="M113.9 58.7H46.8c-6 0-10.9 4.9-10.9 10.9s4.9 10.9 10.9 10.9h67.1V58.7z"/><path fill="#FFF" d="M27.8 33.7H95c6 0 10.9 4.9 10.9 10.9S101 55.5 95 55.5H27.8V33.7z"/><path fill="#FFD05B" d="M27.6 57.1H95c6.9 0 12.5-5.6 12.5-12.5S101.9 32 95 32H27.6c-.9 0-1.7.7-1.7 1.7s.7 1.7 1.7 1.7H95c5.1 0 9.2 4.1 9.2 9.2s-4.1 9.2-9.2 9.2H27.6c-.9 0-1.7.7-1.7 1.7 0 .9.8 1.6 1.7 1.6z"/><path fill="#4CDBC4" d="M114.2 82.1H46.8c-6.9 0-12.5-5.6-12.5-12.5s5.6-12.5 12.5-12.5h67.4c.9 0 1.7.7 1.7 1.7 0 .9-.7 1.7-1.7 1.7H46.8c-5.1 0-9.2 4.1-9.2 9.2s4.1 9.2 9.2 9.2h67.4c.9 0 1.7.7 1.7 1.7-.1.8-.8 1.5-1.7 1.5z"/><path fill="#FFD05B" d="M100.2 65.7v15.9l-4.7-5.1-5.1 5.6V65.7z"/><path fill="#324A5E" d="M53.5 93.2v15.9l-4.7-5-5.1 5.6V93.2z"/><path fill="#FF7058" d="M42.8 39.5v15.9l-4.7-5L33 56V39.5z"/></svg>