<svg xmlns="http://www.w3.org/2000/svg" width="56.7" height="82.2"><path fill="#FFD05B" d="M30.9 63.3h.5c5-19.6 12.6-38.6 11.4-59.8V3C39.8 1.6 36.6.7 33 .2c3.9 9.1.3 43.7-2.1 63.1zM0 25c0 10.9 9.6 30.3 18.3 38.3h4.1C13.8 47.7 4.6 31.8 2.2 14.5.8 17.6 0 21.1 0 25zM24.4.2C20.6.6 17.1 1.6 14 3v.5c-1.3 21.1 6.4 40.1 11.4 59.8H27C24 44 19.7 9.5 24.4.2zM54.5 14.5C52.2 31.8 43 47.7 34.3 63.3h3.3c8.7-8.1 19.2-27.4 19.2-38.3-.1-3.9-.9-7.4-2.3-10.5z"/><path fill="#FF6F57" d="M33 .3C31.5.1 30 0 28.4 0c-1.4 0-2.7.1-4 .2-4.7 9.3-.4 43.8 2.5 63.1h3.9c2.5-19.4 6.1-54 2.2-63zM14 3.6v-.5C8.8 5.5 4.6 9.4 2.2 14.5c2.3 17.3 11.5 33.2 20.2 48.8h2.9C20.4 43.7 12.7 24.7 14 3.6zM42.7 3v.5c1.3 21.1-6.4 40.1-11.4 59.8h2.9c8.7-15.6 17.9-31.5 20.2-48.8-2.3-5.1-6.5-9-11.7-11.5z"/><g><path fill="#31495E" d="M37.8 63.6c.1-.4-.3-.9-.7-.9-.4-.1-.9.3-.9.7l-1 7v.1H29v-7.4h-1.7v7.4H21v-.1l-1-7c-.1-.4-.5-.8-.9-.7-.5.1-.8.5-.7.9l1 7 1.5 10.2c.1.8.8 1.4 1.6 1.4h11.2c.8 0 1.5-.6 1.6-1.4l1.5-10.3 1-6.9z"/></g></svg>