<svg xmlns="http://www.w3.org/2000/svg" width="141.7" height="90.7"><g fill="#010101"><path d="M70.7 90c-6.5 0-12.9-.8-19.1-2.3-5.2-1.3-10.5-3.3-15.9-5.9-4.6-2.3-9.2-5.2-14.3-9.2C13.2 66.1 6 57.6.6 48c-.6-1.1-.8-2.4-.5-3.8.1-.4.3-.9.6-1.3l.1-.1.2-.2c1.1-1.9 2.3-3.8 3.5-5.7 6.6-9.6 14.7-17.5 24.2-23.6C38 7.4 48.5 3.5 59 2.1c4.5-.6 8.5-.9 12.3-.9 1.8 0 3.6.1 5.3.2 6.2.5 12 1.6 17.2 3.3 10.7 3.4 20.7 9 29.6 16.8 3.9 3.4 7.7 7.5 11.5 12.5 1.6 2.1 3.1 4.2 4.5 6.4.3.5.7 1.1 1 1.6v.1l.5.8c.7 1.2.9 2.2.8 3.4-.1 1.1-.7 2-1.4 3.3-.3.5-.6 1-1 1.6-6 9.6-13.8 17.9-23.2 24.6-4.1 2.9-8.5 5.4-13.2 7.4-5.9 2.6-11.3 4.3-16.4 5.3-5.2 1-10.5 1.5-15.8 1.5.1 0 .1 0 0 0zm.2-79.5c-3.1 0-6.2.2-9.2.6h-.1c-5.9.9-11.6 2.4-17.1 4.6h-.1c-5.7 2.5-11.1 5.6-16.1 9.4h-.1c-4.9 3.9-9.4 8.4-13.3 13.4v.1c-1.4 1.8-2.6 3.7-3.8 5.5l-.9 1.5.9 1.5c1.2 1.9 2.5 3.7 3.8 5.5v.1c4 5 8.5 9.6 13.5 13.5h.1c4.9 3.6 10.1 6.7 15.6 9.1h.1c5.6 2.3 11.4 3.8 17.4 4.8h.1c3.1.4 6.2.6 9.3.6 3.1 0 6.3-.2 9.4-.6h.1c5.9-.9 11.7-2.5 17.3-4.8h.1c5.5-2.4 10.7-5.4 15.6-9.1l.1-.1c5-3.9 9.5-8.5 13.5-13.5v-.1c1.3-1.8 2.6-3.6 3.8-5.5l.9-1.5-.9-1.5c-1.1-1.7-2.2-3.4-3.4-5v-.1c-4.1-5.1-8.7-9.8-13.8-13.8h-.1c-5.1-3.8-10.5-7-16.3-9.5h-.1c-5.5-2.2-11.2-3.8-17-4.6h-.1c-3.2-.3-6.2-.5-9.2-.5z"/><path d="M70.8 71.5c-.8 0-1.5 0-2.2-.1h-.2c-1.6-.2-3.1-.4-4.5-.8-1.5-.4-2.9-1.1-4.3-1.7-2-.9-4-2.3-6.2-4.2-1.7-1.6-3.4-3.6-4.7-5.8-2.7-4.4-4-9.8-3.6-14.7.2-3.1.8-5.5 1.6-7.6.6-1.5 1.2-2.9 2-4.2.8-1.4 1.8-2.6 2.7-3.7 3-3.6 7.5-6.5 12.4-7.9 2.2-.6 4.6-1 6.9-1h.9c2.9.1 5.5.6 7.7 1.4 2.9 1.1 4.9 2.1 6.6 3.5 1.3 1 2.5 1.9 3.5 2.9.9.9 1.8 2 2.9 3.5 1.3 1.8 2.4 4.1 3.3 6.8.7 2.2 1.1 4.8 1.2 7.4V46c0 1.4-.2 2.8-.5 4.5-.7 4.6-3.2 9.4-6.8 13.2-1.7 1.8-3.8 3.4-5.9 4.6-2.5 1.4-4.9 2.3-7.1 2.7-2.2.3-4 .5-5.7.5zm.1-42.4c-.7 0-1.4 0-2.1.1h-.2c-1.3.2-2.6.6-3.9 1.1h-.1l-.1.1c-1.2.6-2.3 1.2-3.4 2l-.1.1-.1.1c-1 .9-2 1.9-2.9 2.9l-.1.1-.1.1c-.7 1.1-1.4 2.2-2 3.4l-.1.1v.1c-.5 1.3-.8 2.6-1.1 3.9v.2c-.1 1.4-.1 2.8 0 4.2v.2c.2 1.3.6 2.6 1.1 3.9v.1l.1.1c.6 1.2 1.2 2.3 2 3.4l.1.1.1.1c.9 1 1.9 2 2.9 2.9l.1.1.1.1c1.1.7 2.2 1.4 3.4 2l.1.1h.1c1.3.5 2.6.8 3.9 1.1h.2c.7.1 1.4.1 2.1.1s1.4 0 2.1-.1h.2c1.3-.2 2.6-.6 3.9-1.1h.1l.1-.1c1.2-.6 2.3-1.2 3.4-2l.1-.1.1-.1c1-.9 2-1.9 2.9-2.9l.1-.1.1-.1c.7-1.1 1.4-2.2 2-3.4l.1-.1v-.1c.5-1.2.8-2.5 1.1-3.9v-.2c.1-.8.1-1.4.1-2.1 0-.7 0-1.4-.1-2v-.2c-.2-1.3-.6-2.7-1.1-3.9v-.1l-.1-.2c-.6-1.2-1.2-2.3-2-3.4l-.1-.1-.1-.1c-.9-1-1.9-2-2.9-2.9l-.1-.1-.1-.1c-1.1-.7-2.2-1.4-3.4-2l-.1-.1h-.1c-1.2-.5-2.6-.8-3.9-1.1H73c-.8-.1-1.5-.1-2.1-.1z"/></g></svg>