<svg xmlns="http://www.w3.org/2000/svg" width="141.7" height="141.7"><circle fill="#324A5E" cx="71" cy="71.3" r="70.9"/><path fill="#FF7058" d="M102.1 114.9H39.9c-1.8 0-3.3-1.5-3.3-3.3V34.7c0-1.8 1.5-3.3 3.3-3.3h62.3c1.8 0 3.3 1.5 3.3 3.3v76.9c0 1.8-1.5 3.3-3.4 3.3z"/><path fill="#FFF" d="M43.3 35.6v64.7h44.5V89.4h10.9V35.6z"/><path fill="#E6E9EE" d="M87.8 100.3l10.9-10.9H87.8z"/><path fill="#FFD05B" d="M82.4 26.9l-3.8-6.1H63.5l-3.9 6.1H48.3v11.7h45.4V26.9z"/><g fill="#4CDBC4"><path d="M49.9 45.4h42.3v4.5H49.9zM49.9 57.3h42.3v4.5H49.9zM49.9 69.2h42.3v4.5H49.9zM49.9 81.1h24.6v4.5H49.9z"/></g></svg>