<svg xmlns="http://www.w3.org/2000/svg" width="141.7" height="141.7"><circle fill="#334B5E" cx="70.9" cy="70.9" r="70.9"/><path fill="#66C6B9" d="M102.1 44.3c0 1 .8 1.8 1.8 1.8h.8c1 0 1.8.8 1.8 1.8V57c0 1 .8 1.8 1.8 1.8h5.2c1 0 1.8-.8 1.8-1.8V44.3c0-1-.8-1.8-1.8-1.8H104c-1.1 0-1.9.8-1.9 1.8zM39.4 44.3c0 1-.8 1.8-1.8 1.8h-.8c-1 0-1.8.8-1.8 1.8V57c0 1-.8 1.8-1.8 1.8H28c-1 0-1.8-.8-1.8-1.8V44.3c0-1 .8-1.8 1.8-1.8h9.5c1.1 0 1.9.8 1.9 1.8z"/><path fill="#F3715B" d="M98.8 30.7H42.9c-2.4 0-4.4 2-4.4 4.4v66.6c0 2.4 2 4.4 4.4 4.4h55.9c2.4 0 4.4-2 4.4-4.4V35.1c0-2.4-2-4.4-4.4-4.4z"/><path fill="#FFF" d="M45.8 37.3h50.1v41.1H45.8z"/><circle fill="#FFD15C" cx="91.3" cy="95.9" r="4"/><circle fill="#FFD15C" cx="49.8" cy="95.9" r="4"/><g fill="#66C6B9"><path d="M85.6 106.2v7.8c0 .9.7 1.6 1.6 1.6h6.3c.9 0 1.6-.7 1.6-1.6v-7.8h-9.5zM48 114c0 .9.7 1.6 1.6 1.6h6.3c.9 0 1.6-.7 1.6-1.6v-7.8H48v7.8z"/></g><path fill="#CFD5E0" d="M64.4 43h12.8v4.6H64.4z"/><g fill="#334B5E"><path d="M63 88.2h15.7v3.3H63zM63 95.9h15.7v3.3H63z"/></g></svg>