<svg xmlns="http://www.w3.org/2000/svg" width="141.7" height="141.7"><circle fill="#324A5E" cx="70.8" cy="70.9" r="70.9"/><path fill="#FF7058" d="M97.6 122.9l-75.1-20.7c-1.8-.5-2.8-2.3-2.3-4l19.9-72c.5-1.7 2.3-2.8 4-2.3l75.1 20.7c1.8.5 2.8 2.3 2.3 4l-19.9 72c-.5 1.8-2.3 2.8-4 2.3z"/><path fill="#FFF" d="M109.8 114H31.9c-1.8 0-3.3-1.5-3.3-3.3V36c0-1.8 1.5-3.3 3.3-3.3h77.9c1.8 0 3.3 1.5 3.3 3.3v74.7c0 1.8-1.5 3.3-3.3 3.3z"/><path fill="#4CDBC4" d="M36.7 40.7h68.4v53.2H36.7z"/><path fill="#324A5E" d="M42 62.6l11.3 11.3-16.6 16.6V67.4z"/><path fill="#2B3B4E" d="M78.6 76.8L62.3 60.4 36.7 86.1V94h41.9z"/><path fill="#324A5E" d="M105 79.1L84.2 58.3 48.7 93.8H105z"/><circle fill="#F9B54C" cx="72.8" cy="57.8" r="4.2"/><g fill="#324A5E"><path d="M53.8 46.7h-.4c-.1 0-.2.1-.3.1-.1 0-.2.1-.3.1-.1.1-.2.1-.3.2-.1.1-.2.1-.3.2-.2.1-.4.3-.5.4l-.5.5c-.1.2-.3.4-.4.5-.1.1-.2.3-.3.4l-.4-.1c-.2-.1-.3-.2-.5-.3l-.6-.1c-.2-.1-.4-.1-.6-.1-.2 0-.4-.1-.6-.1h-1.2c-.2 0-.4.1-.6.1-.2 0-.4.1-.5.1-.2 0-.4.1-.5.2-.2.1-.3.1-.5.2-.3.2-.6.3-.9.5-.3.2-.6.4-.8.7.3-.1.7-.2 1-.2.3-.1.7-.1 1-.2.2 0 .3 0 .5-.1h2c.2 0 .3 0 .5.1.2 0 .3 0 .4.1.1 0 .3.1.4.1l.4.1c.1.1.3.1.4.2l.2.1.2.1.4.2.8.5.3-.8.1-.3.1-.3.3-.6c.1-.2.2-.4.3-.5.1-.2.2-.4.3-.5.1-.2.2-.3.3-.5l.2-.2.2-.2.2-.2c.1-.1.2-.1.2-.2.1-.1.2-.1.3-.2l.3-.1c-.1.1-.2.1-.3.1zM57.8 50.8h-.3c-.1 0-.2.1-.3.1-.1 0-.2.1-.3.1-.1.1-.2.1-.3.2-.1.1-.2.1-.3.2-.2.1-.4.3-.5.4l-.5.5c-.1.2-.3.4-.4.5-.1.1-.2.3-.3.4H54c-.2-.1-.3-.2-.5-.3l-.5-.2c-.2-.1-.4-.1-.6-.1-.2 0-.4-.1-.6-.1h-1.2c-.2 0-.4.1-.6.1-.2 0-.4.1-.5.1-.2.1-.3.1-.5.2s-.3.1-.5.2c-.3.2-.6.3-.9.5-.3.2-.6.4-.8.7.3-.1.7-.2 1-.2.3-.1.7-.1 1-.2.2 0 .3 0 .5-.1h2c.2 0 .3 0 .5.1.2 0 .3 0 .4.1.1 0 .3.1.4.1l.4.1c.1.1.3.1.4.2l.2.1.2.1.4.2.8.5.3-.8.1-.3.1-.3.3-.6c.1-.2.2-.4.3-.5.1-.2.2-.4.3-.5.1-.2.2-.3.3-.5l.2-.2.2-.2.2-.2c.1-.1.2-.1.2-.2.1-.1.2-.1.3-.2l.3-.1c-.1.1-.2.1-.3.1z"/></g></svg>