<svg xmlns="http://www.w3.org/2000/svg" width="566.9" height="82.2"><path fill="#FFD3A4" d="M238.2 54.8c-1.9 4.6-7.1 6.7-11.6 4.9-4.5-1.9-6.7-7.1-4.9-11.6 1.9-4.6 7.1-6.7 11.6-4.9 4.6 1.9 6.7 7.1 4.9 11.6z"/><path fill="#FFD3A4" d="M170.1 30.2c8.2-16.5 27.8-23.5 43.8-15.6 16 8 22.3 27.8 14.1 44.3-8.2 16.5-27.8 23.5-43.8 15.5-16-7.8-22.3-27.6-14.1-44.2z"/><path fill="#FFD3A4" d="M167.9 34.6c8.2-16.5 27.8-23.5 43.8-15.5 16 7.9 22.3 27.8 14.1 44.3-8.2 16.5-27.8 23.5-43.8 15.5-16-8-22.3-27.8-14.1-44.3z"/><path fill="#FFD3A4" d="M180.6 33.5c-1.9 4.6-7.1 6.7-11.6 4.9-4.6-1.9-6.7-7.1-4.9-11.6 1.9-4.6 7.1-6.7 11.6-4.9 4.6 1.8 6.8 7 4.9 11.6z"/><path fill="#FFF" d="M195.5 42.5c-1.7 4.2-6.4 6.2-10.5 4.5-4.2-1.7-6.2-6.4-4.5-10.5 1.7-4.2 6.4-6.2 10.5-4.5 4.1 1.6 6.2 6.3 4.5 10.5zM219.7 49.9c-1.7 4.2-6.4 6.2-10.6 4.6-4.2-1.7-6.2-6.4-4.6-10.6 1.7-4.2 6.4-6.2 10.6-4.6 4.2 1.6 6.2 6.4 4.6 10.6z"/><path fill="#1A1A1A" d="M184.4 38.1c.8-2 3-2.9 5-2.2 2 .8 3 3 2.2 5-.8 2-3 3-5 2.2-2-.8-3-3.1-2.2-5zM208.5 45.4c.8-2 3-2.9 5-2.2 2 .8 3 3 2.2 5-.8 2-3 3-5 2.2-2-.8-3-3-2.2-5zM196 56.3c-2.8-.6-5.3-2-7.1-4 .8 3.1 3.3 5.6 6.7 6.3 3.4.7 6.6-.7 8.6-3.3-2.5 1.2-5.3 1.5-8.2 1zM210.9 34.7c2.6-.2 5.1.4 7.3 1.6-1.5-2.5-4.4-4.1-7.5-3.9-3.1.2-5.7 2.1-6.9 4.8 2-1.5 4.5-2.4 7.1-2.5zM233.6 48c-.4.2-.5.7-.3 1 2.4 4.3-1.1 6.7-1.3 6.8-.4.2-.5.7-.2 1 .2.4.7.5 1.1.2 0 0 4.9-3.2 1.8-8.8-.3-.3-.7-.4-1.1-.2zM172.4 24.7s-5.5 2.1-3.7 8.2c.1.4.5.6.9.5.4-.1.6-.5.5-.9-1.4-4.8 2.6-6.3 2.7-6.4.4-.1.6-.6.4-1 .1-.3-.4-.5-.8-.4z"/><path fill="#F05A22" d="M208.6 63.4c-3.7 4.7-10.3 7.1-16.9 6.2-6.6-1-12.2-5.2-14.3-10.7-.1-.3-.5-.5-.8-.4-.3.1-.5.5-.4.8 2.2 6 8.2 10.5 15.3 11.5 7 1 14.1-1.6 18.1-6.6.2-.3.2-.7-.1-.9-.3-.3-.7-.2-.9.1z"/><path fill="#F05A22" d="M209.2 61c-.3-.1-.7.1-.7.4-.3 1-.1 3 2.3 3.8.3.1.7-.1.8-.4.1-.3-.1-.7-.4-.8-1.8-.6-1.5-2.2-1.5-2.4 0-.2-.2-.5-.5-.6zM178.2 56.9c-.3-.1-.7.1-.8.4-.6 1.9-2.2 1.6-2.3 1.5-.3-.1-.7.1-.7.4-.1.3.1.7.4.7 1 .3 3 .1 3.8-2.3.1-.3 0-.6-.4-.7z"/><g fill="#1A1A1A"><path d="M175.9 44.9c-.4.7-1.2 1.1-1.8.8-.6-.3-.8-1.2-.5-1.9.4-.7 1.2-1.1 1.8-.8.6.3.9 1.1.5 1.9zM178.1 49.3c-.4.7-1.2 1.1-1.9.7-.7-.3-.9-1.2-.6-2 .4-.7 1.2-1.1 1.9-.7.7.4 1 1.2.6 2zM173.2 50.2c-.4.7-1.2 1.1-1.8.8-.6-.3-.9-1.2-.5-1.9s1.2-1.1 1.8-.8c.7.3.9 1.1.5 1.9z"/></g><g fill="#1A1A1A"><path d="M218.7 62.9c-.3-.6-.1-1.5.4-2 .6-.4 1.3-.3 1.7.4.3.6.1 1.5-.4 2-.6.3-1.4.2-1.7-.4zM220.8 57.7c-.3-.6-.1-1.5.4-2 .6-.4 1.3-.3 1.6.4.3.6.1 1.5-.4 2-.5.4-1.3.3-1.6-.4zM215.5 58.6c-.4-.7-.1-1.6.5-2.1.7-.5 1.5-.3 1.8.3.4.7.1 1.6-.5 2.1s-1.4.4-1.8-.3z"/></g><path fill="#C53C92" d="M207.4 8.1c.5-1.1 1.8-1.5 2.9-1 1.1.5 1.5 1.8 1 2.9-.5 1.1-1.8 1.5-2.9 1-1.1-.5-1.5-1.9-1-2.9z"/><g><path fill="#1A1A1A" d="M217.6 27.1s-26 8.1-41.2 1.7C161.2 22.4 182 16 182 16l35.6 11.1zM208.1 2c.8-1.7 2.9-2.4 4.6-1.6 1.7.9 2.4 2.9 1.6 4.7-.9 1.7-2.9 2.4-4.7 1.6-1.7-.9-2.4-3-1.5-4.7z"/><path fill="#0CC" d="M204.6 25.8c10.4 3.5 24.3 4.7 24.3 4.7 3.3-11-4.6-23.1-17.8-27.1-13.1-4-26.5 1.7-29.8 12.7.1.1 13 6.2 23.3 9.7z"/></g><path fill="#B6B000" d="M264.2 30.6s2-2.4 8-1.8c5.4.5 13.2 4.9 12 17-1.2 12.3-8.6 14.4-14.6 13.8-5-.5-6.7-2.6-6.7-2.6l-.6 5.8s5.7 1.2 5.9 1.4c.3.3-.6 8-.5 8 .1 0-21.4-2-21.3-2.1l.4-8.1 4.5.1 2.4-24.6-4.4-.4c.3-3.8.4-8.8.4-8.8-.1 0 13.3-.8 13.5-.5.1.4 1 2.8 1 2.8zm9.4 13.9c.4-3.9-1-6.1-3.3-6.3-2.5-.2-4.3 1.8-4.7 5.5-.3 3.5 1 6.4 3.3 6.6 2.8.2 4.3-1.9 4.7-5.8z"/><path fill="#0CC" d="M310.2 39.6c-.8-.7-2.7-2.1-4.7-1.9-3.1.3-4.9 2.9-4.5 6.5.4 3.8 1.1 5.6 1.1 5.6l6.1.1.9 7.7c-.3.3-19.9 2.2-19.9 2.2s-.9-4.3-1.3-8.1l3.9-.6-1.4-13.9c-.1-.1-3.4.5-3.5.5-.1 0-1.7-7.3-1.7-7.6 0-.3 11.7-3.3 11.7-3.3l2.3 3.8s1.7-3 6.7-3.6c5.3-.5 9.8 3.2 9.7 3.6 0 1.2-5.2 9.1-5.4 9z"/><path fill="#00A551" d="M338.9 38.5l.3-2.9s12.5 1 12.5 1.3c0 .3-.5 7.9-.6 7.9-.1 0-4.3.4-4.5.5-.2.1-1.3 12.4-1.3 12.4.1 0 4.9.5 4.9.9.1.4-.8 8.3-1.1 8.2-.2 0-13.3-1.8-13.3-2 0-.2-.2-3.1-.2-3.1s-2.8 3.6-8.8 2.9c-5.4-.6-12.6-5.1-11.2-17.3 1.3-11.2 8.9-13.7 14.9-12.9 5.1.8 8.4 4.1 8.4 4.1zm6.4-20.3c.5.2 2.8 8.9 2.6 9-.2 0-17.6 3.6-17.8 3.4-.9-.6-2.6-7.5-2.6-7.5s17.5-5 17.8-4.9zm-19.2 30.7c-.4 3.4 1.6 5.9 4 6.1 2.6.3 4.8-1.6 5.2-4.9.4-3.1-1.3-5.9-3.7-6.2-2.9-.3-5.1 1.5-5.5 5z"/><path fill="#FF6D00" d="M383.1 28.5c0 .2 1.4 7.7 1.2 7.7-.2.1-14.8 13.4-14.6 13.4.1 0 6 .2 6.1.1.1-.1.1-3.6.3-3.6.1 0 8.7.1 9 .5.4.4-.2 11.6-.2 11.6h-28.1c-.1 0-1.6-7.8-1.5-7.9.1-.1 15.7-14.7 15.4-14.7s-5.4-.6-5.5-.5c-.1.1-.7 3.8-.7 3.8s-8.4-.6-8.8-.8c-.5-.2.2-9.8.2-9.8s27.2.1 27.2.2z"/><path fill="#57C4E5" d="M411.4 56.1s-1.2 2.7-7.3 3.2c-5.4.4-14-2.5-14.9-14.7-.9-12.3 5.8-15.7 11.8-16.1 5-.4 7.2 1.7 7.2 1.7l-.5-6.2s-4.4-.3-4.6-.5c-.4-.3-.3-7.4-.3-7.4-.1 0 15.4-1.3 15.3-1.1l2.5 33.4 4.8-.1c.3 3.8.7 8.8.7 8.8.1 0-13.6 1.5-13.9 1.2l-.8-2.2zM400.1 44c.3 3.9 2 5.9 4.3 5.7 2.5-.2 4-2.5 3.7-6.2-.3-3.5-2.1-6.4-4.4-6.2-2.8.2-3.9 2.8-3.6 6.7z"/><path fill="#F66" d="M460.7 50.5l2.5.6s.3 5.8-.1 7.7l-15.4-.4s-.3-6.5-.2-7.5l2.9-.5.1-6.3c.1-4-1.6-6-4.4-6.1-2.3 0-4.5 2.4-4.6 5.9l-.1 6.5 3.5.8v7.1c-.3.3-17.1-.2-17-.2 0 0-.4-3.8-.3-7.6l3.9-.2.3-14.2c-.1-.1-3.4.1-3.6.1-.1 0-.8-8-.8-8.3 0-.3 11.8-1.3 11.8-1.3l1.8 4.3s2.8-3.7 7.8-3.6c6 .1 12.1 3.1 11.9 15.4v7.8z"/><path fill="#E3B000" d="M482.6 51l4.7 1.4-.8 7.1c-.3.3-20.5-2.5-20.4-2.4 0 0 0-3.8.5-7.6l5.1.4 1.6-11.9c-.1-.1-4.6-.4-4.7-.4-.1 0 0-7.8.1-8.1 0-.3 12.5.7 16.4 2.1L482.6 51zm3.7-31.5c-.4 3.2-2.3 6.1-6.3 5.6-4.1-.5-6-3.1-5.7-6.8.4-3.8 3.4-5.8 6.5-5.4 3.3.4 5.9 3.5 5.5 6.6z"/><path fill="#0CC" d="M524.1 49.5l2.5.4s.7 5.8.4 7.7l-15.4.5s-.7-6.5-.6-7.5l2.9-.7-.3-6.3c-.2-4-1.9-5.9-4.8-5.8-2.3.1-4.3 2.6-4.2 6.2l.4 6.5 3.6.6.4 7.1c-.3.3-17.1.9-17 .9 0 0-.6-3.8-.8-7.6l3.9-.4-.6-14.1c-.1-.1-3.4.3-3.5.3-.1 0-1.3-8-1.3-8.3 0-.3 11.7-2.1 11.7-2.1l2.1 4.2s2.6-3.9 7.6-4.1c6-.3 12.3 2.3 12.8 14.6l.2 7.9z"/><path fill="#B6B000" d="M529.4 33.5s-.1-5.9.6-7.7l17.5 2.6s-.6 6.8-.9 7.8l-3.3-.4 3.2 8.9 5.4-7.5-2.9-.6 1-7.6c.3-.2 16.9 2.8 16.8 2.8 0 0-.1 3.8-.7 7.6L563 39s-20.6 28.9-25 33.7c0 0-8-2.9-9.4-6.5-.3-.1 10.6-12.3 10.4-12.4 0 0-6.2-14.7-6.4-19.7l-3.2-.6z"/><path fill="#F66" d="M3.9 56.1c.2-.3 4.2-1.1 4.2-1.1L4.5 30.5s-3.4.5-3.8.2C.4 30.5 0 22 0 22l17.2-1.6 1.4 8.4-4.1.9 1 6.5 11.5-.8-.9-7.3h-3.6c-.1 0-1.3-4.5-1.5-8.1 5.7-2.5 19.6-2 19.6-2s.7 8.2.6 8.2c-.1 0-4.3 1.2-4.3 1.2l3.4 23.4h4.2l1 8.5s-18.4 2.3-18.4 2.2c0-.1-1.2-8.7-1.2-8.7L30 52l-1-7.8-12.1 1s.9 8.7 1.2 8.7c.3 0 4-.7 4-.3 0 .4 1.7 7.8 1.4 7.9-.3.2-17.8 2.7-18.6 1.8-.8-.9-1.2-7-1-7.2z"/><path fill="#57C4E5" d="M48.8 37.7l-2.4-.7s.1-6.2.9-8L61 30.5s-.7 3.9-2.5 14.2c-.7 3.9.3 6.2 3.1 6.7 2.3.4 4.3-1.7 4.9-5.3l.7-4.2-3.9-.9 1-8.5L79.1 34l-3.7 20.2c.1.1 3.5 1.4 3.6 1.5.1 0-1.5 8.6-1.6 8.9-.1.3-11.1-1.7-11.1-1.7l-.5-2.8s-3.7 2.3-8.7 1.4c-6-1.1-11.9-5.1-9.6-17.3l1.3-6.5z"/><path fill="#E3B000" d="M107.2 42.1c-.9-.6-2.8-2-4.9-1.6-3.1.5-4.7 3.3-4.1 6.8.6 3.8 1.4 5.6 1.4 5.6l6.2-.2 1.4 7.7c-.2.3-19.9 3.4-19.9 3.4s-1.2-4.3-1.8-8.1l3.9-.9-2.2-13.9c-.1-.1-3.4.7-3.5.8-.1 0-2.2-7.2-2.2-7.5 0-.3 11.6-4 11.6-4l2.6 3.7s1.5-3.2 6.6-4c5.3-.9 10 2.6 10 3.1-.2.9-4.9 9.2-5.1 9.1z"/><path fill="#FF6D00" d="M136.3 34.8l.3-3s12.7.8 12.7 1.1c0 .3-.3 8-.4 8-.1 0-4.4.5-4.5.6-.2.1-1.1 12.6-1.1 12.6.1 0 5 .4 5 .8.1.4-.7 8.4-.9 8.3-.2 0-13.5-1.5-13.5-1.7 0-.2-.3-3.1-.3-3.1s-2.8 3.7-8.8 3.1c-5.5-.5-12.8-4.9-11.7-17.2 1.1-11.3 8.6-14 14.7-13.4 5.1.6 8.5 3.9 8.5 3.9zm6-20.7c.5.2 3 8.9 2.8 9-.2 0-17.7 4-17.9 3.9-.9-.6-2.8-7.5-2.8-7.5s17.6-5.5 17.9-5.4zm-18.7 31.5c-.3 3.5 1.8 5.9 4.2 6.1 2.7.3 4.9-1.8 5.2-5.1.3-3.2-1.4-6-3.9-6.2-3-.3-5.2 1.6-5.5 5.2z"/><g><path fill="#FFD3A4" d="M255.8 31.1c-7.4.2-13.5 6.2-13.7 13.7-.2 7.5 5.5 13.8 13 14.4.2 0 .5.1.7.1 2.6.1 4.8-2 4.9-4.7.1-2.3-1.5-4.3-3.7-4.8 2.2-.4 3.9-2.3 3.9-4.6.1-2.2-1.4-4.2-3.5-4.7 2.1-.5 3.7-2.3 3.7-4.5.1-2.6-2-4.9-4.7-4.9-.1-.1-.4-.1-.6 0z"/><path fill="#1A1A1A" d="M255.2 31.3c2.8.4 5 2.4 5.9 4.9.3-2.5-1.5-4.7-3.9-5.1-.7-.1-1.5 0-2.1.2h.1zM255 40.7c2.8.4 5 2.4 5.9 4.9.3-2.5-1.5-4.7-3.9-5.1-.7-.1-1.5 0-2.1.2h.1zM254.7 50c2.8.4 5 2.4 5.9 4.9.3-2.5-1.5-4.7-3.9-5.1-.7-.1-1.5 0-2.1.2h.1z"/></g><g><path fill="#FFD3A4" d="M147.2 65.6c7.3-1.2 12.5-8 11.6-15.5-.9-7.5-7.5-12.9-14.9-12.4h-.7c-2.6.3-4.5 2.7-4.2 5.3.3 2.3 2.1 4 4.3 4.2-2.1.7-3.5 2.8-3.2 5.1.3 2.2 2 3.9 4.1 4.2-2 .8-3.3 2.8-3.1 5 .3 2.6 2.7 4.5 5.3 4.2.3.1.6 0 .8-.1z"/><path fill="#1A1A1A" d="M147.7 65.3c-2.8 0-5.3-1.6-6.5-4 .1 2.5 2.1 4.5 4.6 4.5.8 0 1.5-.2 2.1-.5h-.2zM146.6 56c-2.8 0-5.3-1.6-6.5-4 .1 2.5 2.1 4.5 4.6 4.5.8 0 1.5-.2 2.1-.5h-.2zM145.6 46.7c-2.8 0-5.3-1.6-6.5-4 .1 2.5 2.1 4.5 4.6 4.5.8 0 1.5-.2 2.1-.5h-.2z"/></g></svg>