<svg xmlns="http://www.w3.org/2000/svg" width="566.9" height="411"><path fill="#FFF" d="M-.02 264.347c-.3.3 54.4 6.4 54.1 6.3-.1 0 2.6-19.5 1.8-20.3-.5-.5-14.9-3.899-14.9-3.899l1.7-14.9s4.1 5.3 16.8 6.8c15.3 1.8 34.3-3.3 37.9-34.5 3.6-30.899-15.9-42.3-29.7-43.899-15.3-1.801-20.4 4.3-20.4 4.3s-2.2-6-2.4-7c-.7-.8-34.6.7-34.4.7 0 0-.6 12.699-1.5 22.3l11.1 1.3-7.1 62.7-11.5-.4-1.5 20.498zm62.5-80.5c5.8.7 9.3 6.4 8.1 16.3-1.2 10-5.1 15.4-12.3 14.5-5.9-.699-9.1-8.1-8-17.1 1-9.3 5.7-14.401 12.2-13.7zm38.1-19.701c.1.801 3.9 19.4 4.1 19.4.3 0 8.7-1.5 9-1.2l2.8 35.4-9.9 1.399c.7 9.601 2.8 20.7 2.8 20.7-.1 0 50-3.8 50.7-4.6l-2-19.5-15.5-.7s-1.6-4.6-2.4-14.3c-.8-9 4-15.601 11.8-16.3 5.3-.4 9.8 3.3 11.9 5 .5.399 14.1-19.5 14.2-22.301.1-1.1-11.1-10.899-24.6-9.699-12.8 1.1-17.3 8.699-17.3 8.699l-5.7-9.8c0 .003-30 7.103-29.9 7.802zm161.4 71.301c0-1.101-12.3-2.601-12.4-2.601 0 0 3.5-31.399 4-31.6.3-.3 11.1-1.101 11.4-1 .2 0 1.7-19.3 1.8-20 .1-.7-31.8-4-31.8-4l-1 7.5s-8.4-8.8-21.1-10.5c-15.3-2.101-34.7 3.8-38.5 32.3-4.2 30.8 13.9 42.6 27.6 44.4 15.3 2.1 22.6-7 22.6-7s.5 7.399.5 7.8c-.1.399 33.4 5.6 33.8 5.7.6.001 3.3-19.899 3.1-20.999zm-51.3-10.1c-6-.8-11.1-7.1-9.9-15.8 1.2-9 6.9-13.5 14.4-12.5 6.1.8 10.2 8.1 9.1 16-1.2 8.3-6.9 13.2-13.6 12.3zm-5.4-81.701s4.1 17.801 6.4 19.301c.6.399 45.1-7.7 45.6-7.801.5-.1-4.9-22.3-6.2-22.899-.8-.5-45.8 11.399-45.8 11.399zM78.58 370.747c15.4-.9 18.6-7.7 18.6-7.7l2.1 5.3c.8.7 35.6-2.399 35.4-2.399 0 0-.7-12.7-1.4-22.301l-12.1-.1-4.9-85c.3-.3-39.4 2.2-39.1 2.2.2 0-.5 18.2.4 18.899.6.4 11.7 1.5 11.7 1.5l.9 15.7s-5.4-5.3-18.2-4.6c-15.4.8-32.6 9.1-30.9 40.399 1.9 31.001 23.7 38.902 37.5 38.102zm.1-55.9c5.9-.3 10.4 7 10.9 16 .5 9.5-3.2 15.3-9.7 15.7-5.9.3-10.2-4.7-10.8-14.7-.6-10.1 2.4-16.6 9.6-17zm-49.1-281.9l8 62.5s-10.2 1.899-10.8 2.6c-.6.7.1 16.2 2 18.5 1.9 2.3 46.7-3.3 47.4-3.7.7-.399-3.2-19.2-3.3-20.2.1-1.1-9.3.4-10 .4-.8.1-2.5-22.1-2.5-22.1l30.9-2 2.3 20-10.6 2.1s2.5 21.8 2.5 22.1c0 .301 47-4.699 47-4.699l-2-21.7-10.5-.3-7.6-59.801s10.8-2.8 11.1-2.899c.3 0-1.2-20.9-1.2-20.9s-35.3-1.6-50.1 4.4c.4 9.1 3.3 20.7 3.5 20.7.2 0 9 .1 9 .1l2.1 18.6-29.4 1.4-2.3-16.6 10.5-2.101-3.1-21.5-43.9 3.4s.6 21.5 1.5 22.2c.8.6 9.5-.5 9.5-.5zm132.7 81.9c12.7 2.5 22.2-3.2 22.2-3.2l1.2 7.101s28.1 5.5 28.3 4.7c.1-.7 4.5-22.601 4.4-22.601-.3-.1-8.9-3.5-9.2-3.899l10.3-51.301-37.6-4.6-3.1 21.5 9.8 2.4-2 10.6c-1.8 9-6.9 14.3-12.7 13.1-7.2-1.399-9.6-7.199-7.6-17.199 5.1-26 7.1-36.101 7.1-36.101l-34.8-4.3c-2 4.6-2.7 20.3-2.7 20.3l6.2 1.9-3.6 17c-6.2 31.1 8.5 41.5 23.8 44.6zm123.901-20.8l-15.701.3s-1.9-4.5-3.3-14.3c-1.3-9.1 3-16 10.9-17.2 5.3-.8 10.101 2.7 12.4 4.3.5.4 13-20.6 12.899-23.3 0-1.1-11.799-10.3-25.4-8.3-12.8 1.9-16.9 9.9-16.9 9.9l-6.3-9.601s-29.8 9-29.7 9.8c.1.801 5.2 19.301 5.3 19.301.3 0 8.6-2 9-1.801l5.1 35.5-9.9 2.101c1.3 9.7 4.1 20.7 4.1 20.7-.2 0 50.1-6.9 50.8-7.801l-3.298-19.599zm102.599-65.5c.5-.1-5.5-22.4-6.8-23-.7-.4-45.899 12.6-45.899 12.6s4.6 17.9 6.899 19.301c.5.399 45.3-8.802 45.8-8.901zm5.7 73.2c0-1.101-12.5-2.3-12.601-2.3 0 0 2.801-31.7 3.301-32 .3-.301 11.199-1.301 11.5-1.301.199 0 1.3-19.5 1.4-20.3.1-.8-32.201-3.3-32.201-3.3l-.799 7.6s-8.701-8.6-21.601-10.1c-15.5-1.7-34.899 4.7-38.101 33.5-3.5 31.2 15 42.7 28.9 44.2 15.5 1.7 22.6-7.601 22.6-7.601s.701 7.4.601 7.9c-.101.4 33.8 4.9 34.3 4.9.601.102 2.902-20.098 2.701-21.198zm-52.1-9c-6.1-.7-11.299-7-10.399-15.7 1-9.1 6.601-13.8 14.2-13 6.199.7 10.5 7.9 9.6 16-.901 8.4-6.501 13.4-13.401 12.7zm30.1 71.1c-3.399-15.3-16.7-26.1-32.3-26.399-2.1 0-4.301.1-6.4.5h-.199c-.601 0-1.101.1-1.601.199-2.7.601-4.899 2.2-6.399 4.5-1.5 2.301-1.9 5-1.301 7.7 1 4.601 5 7.9 9.801 8h.299l.9 3.8c-4.4 2-6.8 6.801-5.699 11.5 1 4.5 5 7.801 9.699 7.9l.9 3.8c-4.2 2.101-6.4 6.8-5.301 11.3 1 4.601 5 7.9 9.701 8 .799 0 1.6-.1 2.5-.3.5-.1 1-.3 1.5-.5h.199c17.201-4.8 27.601-22.4 23.701-40zm-176.6 203.4l39.1 1.899c1.2-4.8.7-19.6.7-19.6l-6.3-1.6.9-19.801c1.1-31.399-14.2-39.199-29.5-39.8-12.8-.5-20.1 8.8-20.1 8.8l-4.4-11s-30 2.101-30 2.801c0 .8 1.5 21.199 1.6 21.199.3 0 8.8-.399 9.1-.1l-1.4 36.1-10 .2c-.5 9.7.4 19.4.4 19.4-.1 0 42.5 2 43.3 1.3l.4-18.1-9-2.301.5-16.6c.3-9.1 6-15 11.9-14.8 7.2.3 11.3 5.5 10.9 15.7l-.4 16.1-7.4 1.1c-.7 2.502-.3 19.103-.3 19.103zm69.9-100.5c-1.1 9.5 3.8 16.1 14.1 17.6 10.201 1.5 15-5.899 16.201-14 1.1-7.899-5.301-15.899-13.401-17-7.9-1.1-15.7 3.799-16.9 13.4zm-22.8 98c-.1 0 51 7.8 51.9 7.2l2.301-18-12-3.7 7.199-49.601c-9.8-3.899-41.6-6.899-41.7-6.199-.1.699-.7 20.699-.5 20.699.3 0 11.8.9 12 1.301l-4.5 30.3-12.9-1.3c-1.6 9.6-1.8 19.3-1.8 19.3zm111.3-153.5c-.699-1.101-22.5-1.8-22.8-1.8-.5 0-.8 8.699-.899 9-.301.3-15.201-.601-15.601-.601-.2 0 8.8-8.1 18.101-16.3-.801-1.3-1.4-2.7-1.701-4.2a13.403 13.403 0 0 1 4.301-13.1c-4.7-1.3-8.4-5.101-9.5-10-.801-3.7-.1-7.4 1.9-10.4-20.301-.5-47.301-1-47.301-1s-2.1 24.601-.9 25.101c1.2.6 22.5 2.5 22.5 2.5s1.5-9.5 1.801-9.601c.3-.3 13.4 1.5 14 1.5s-39.801 36.4-39.901 36.7c-.3.3 3.3 20.1 3.4 20.1l71.401 1.301c.1.199 2.1-28.301 1.199-29.2zm4.301 158.6l39.1-.6c.9-4.9-.5-19.601-.5-19.601l-6.4-1.199-.4-19.801c0-1.8-.1-3.399-.299-5-1.601.601-3.201.9-4.9.9-5.301-.1-10.1-3.4-12.2-8.3-.2-.5-.5-1.2-.601-1.9a36.39 36.39 0 0 1-1-21.6c-4.1-1.5-8.6-2-13-1.8-12.799.3-19.5 10-19.5 10l-5.1-10.7s-29.8 4-29.8 4.7c0 .8 2.8 21.1 3 21.1.3 0 8.7-1 9-.7l.8 36.101-9.9.899c.101 9.7 1.601 19.3 1.601 19.3-.2 0 42.601-.699 43.3-1.5l-.8-18.1-9.101-1.7-.6-16.6c-.199-9.101 5-15.4 10.9-15.5 7.3-.2 11.6 4.8 11.9 14.899l.6 16.101-7.4 1.6c-.2 2.401 1.3 19.001 1.3 19.001zm42.899 21.5c3.5 9.3 23.6 17 23.6 17 11.4-12 65.101-84.7 65.101-84.7l8.3.9c1.8-9.5 2.2-19.2 2.2-19.2.1 0-41.8-8.399-42.601-7.8l-3 19.4 7.4 1.699-14.2 18.7-7.8-22.899 8.4 1.1c.699-2.5 2.6-19.8 2.6-19.8l-8.8-1.5c-.101 1.2-.4 2.3-.9 3.5-1.399 3.3-3.899 5.899-7.3 7.3-1.7.7-3.5 1.1-5.4 1-3-.1-5.899-1.1-8.2-3-.5 4.5-3.1 8.5-7.199 10.6 2.4 15.101 14.899 46.4 14.899 46.4.5.5-27.899 31-27.1 31.3zm16.101-91l3.6-1.5c1.899 2.5 4.8 4 8 4.101 1.399 0 2.8-.2 4.1-.801 2.5-1 4.5-3 5.5-5.5s1-5.3 0-7.8c-.2-.5-.399-1-.7-1.399l-.1-.101-.1-.1c-5.601-11.601-17.001-19-29.9-19.2-4.7-.1-9.3.8-13.7 2.6-16.6 6.9-24.9 25.7-18.8 42.601v.2c.2.6.3 1.1.5 1.5 1.601 3.699 5.2 6.199 9.2 6.3 1.4 0 2.8-.2 4.1-.8 4.4-1.801 7-6.601 6.1-11.301l3.601-1.5c1.899 2.7 4.899 4.4 8.2 4.4 1.4 0 2.8-.2 4.1-.8 4.399-1.8 6.998-6.3 6.299-10.9zm21.3-133.1c2.399 2.7 5.6 4.5 9.199 5.1 4.801.8 9.601-.6 13.2-3.8 6.601-5.8 7.2-15.9 1.4-22.4-2.4-2.699-5.601-4.5-9.2-5.1-4.8-.8-9.6.6-13.2 3.8-6.599 5.799-7.2 15.9-1.399 22.4zm5.5-17.9c4.1-3.6 10.3-3.2 13.899.8a9.828 9.828 0 0 1-.899 13.9c-4.101 3.6-10.301 3.2-13.9-.8a9.827 9.827 0 0 1 .9-13.9zm42.199 39.6c-6.6 5.899-7.3 16-1.399 22.699 2.5 2.801 5.7 4.601 9.3 5.2 4.8.8 9.7-.6 13.3-3.8 6.601-5.9 7.2-16 1.4-22.7-2.5-2.8-5.7-4.6-9.3-5.2l.399-2.6-.399 2.6c-4.801-.799-9.7.601-13.301 3.801zm18 5.6c3.601 4.1 3.2 10.3-.8 13.9-4.1 3.6-10.3 3.199-13.899-.801-3.601-4.1-3.2-10.3.8-13.899a9.732 9.732 0 0 1 13.899.8zm41.801 19.5c4.5-9.7 7.1-20.1 7.8-30.7 18.399-19.399 16.5-51.7-3.3-75.399 3.3-3 3.8-8.101 1-11.801-2.9-3.899-8.5-4.699-12.4-1.8-.5.4-1 .9-1.4 1.4-24.8-18.601-57.1-18.9-75.5.5 0 0 22.301 28.7 41.801 48.5 5.3 5.399 11.399 10.7 17.5 15.6-20.2-4.6-64.4-17-85.101-41.3-3.3-3.9-5.399-7.2-6.5-9.9-3.2.2-10 1.801-11.8 11.301-.2 1.1-1.2 1.699-2.3 1.6-1.1-.2-1.7-1.2-1.6-2.3 2.1-11.4 10.1-13.9 14.6-14.4-.5-4.5 2.3-7.1 6.5-8.5-7.9-3.7-17.6-2.7-24.6 3.4-7.801 6.8-9.801 17.7-5.701 26.6-32.899 29-39.199 77.9-13.299 112.5 27.299 36.4 79.899 43.101 117.499 14.9 1.601-1.2 3.2-2.5 4.801-3.8l2.699-1.801c8.4 7.7 21.4 8 30.2.4 9.5-8.2 10.5-22.5 2.2-32-.799-1.1-1.9-2.1-3.099-3zm-107.901-71.2c4.4-3.899 10.1-5.3 15.4-4.399 4 .699 7.899 2.699 10.8 6 6.8 7.699 6.1 19.399-1.601 26.199-4.399 3.9-10.1 5.301-15.399 4.4-4-.7-7.9-2.7-10.8-6-6.8-7.7-6.1-19.401 1.6-26.2zm30.901 68.4c-7.301 3.6-16.4 3-23.2-2.4-6.9-5.399-9.7-14-7.9-22 1.9 6.601 5.9 12.601 11.7 17.2 5.7 4.599 12.599 6.9 19.4 7.2zm-56.101-61.4c1.7-1.3 4-1.1 5 .3 1.1 1.4.6 3.601-1.1 4.9-1.7 1.3-4 1.1-5-.3-1.099-1.4-.599-3.601 1.1-4.9zm-.3 12.299c1.7-1.3 4-1 5.101.5 1.199 1.5.699 3.801-1 5.101-1.701 1.3-4 1.1-5.101-.5-1.1-1.601-.7-3.9 1-5.101zm-11.799-3.199c1.699-1.301 3.9-1.101 5 .3 1.1 1.399.6 3.6-1.1 4.899-1.701 1.301-3.9 1.101-5-.3-1.101-1.399-.601-3.599 1.1-4.899zm73.899 82.4c-.6.601-1.6.601-2.199 0-1.101-1.1-1.9-2.3-2.301-3.399-14.5 6.399-33.1 4.1-47.5-6.101-14.3-10-22.6-26.3-21.7-41.8-1.699-.3-3.1-1.1-3.899-1.8-.601-.601-.7-1.5-.101-2.2.601-.7 1.5-.7 2.201-.1.199.199 1.299 1 2.799 1.1.301-.2.601-.3 1-.2.101 0 .201 0 .301.101.9-.2 1.9-.7 2.9-1.801.6-.6 1.6-.6 2.199 0 .6.601.6 1.601 0 2.2-1.4 1.4-2.9 2.2-4.199 2.601-1 14.6 6.799 29.899 20.3 39.399 13.899 9.7 31.6 11.8 45.3 5.4.2-2 1.1-3.7 1.899-4.601.601-.6 1.5-.699 2.2-.1.601.6.7 1.5.101 2.2-.301.399-2.9 3.6.6 7 .7.501.7 1.501.099 2.101zm16.5-9.701c0-1.899 1.601-3.8 3.7-4.199 2.101-.4 3.7.899 3.8 2.8 0 1.899-1.6 3.8-3.699 4.2-2.101.5-3.801-.801-3.801-2.801zm5.7 16.101c-1.8.3-3.3-.9-3.399-2.7 0-1.8 1.399-3.6 3.199-3.9 1.801-.3 3.301.9 3.4 2.7s-1.299 3.6-3.2 3.9zm10.601-9.2c-1.801.3-3.301-.9-3.4-2.7 0-1.8 1.4-3.6 3.3-3.899 1.8-.301 3.3.899 3.3 2.699.1 1.8-1.301 3.6-3.2 3.9zm1.699-23.5c-4.399 3.9-10.199 5.4-15.6 4.4-4.1-.7-7.9-2.7-10.9-6.101-6.899-7.8-6.1-19.6 1.601-26.5 4.399-3.899 10.2-5.3 15.5-4.399 4.1.699 7.899 2.699 10.899 6 7 7.9 6.2 19.699-1.5 26.6zm-1.1-43c-6.2-2.7-12.7-3.4-18.9-2.6 5.801-4.7 13.9-6 21.301-2.9 7.3 3.1 11.899 10 12.5 17.4-3.601-5.1-8.7-9.301-14.901-11.9zm24.201 76.2c-1.101.1-2-.7-2.101-1.7-.1-1 .7-2 1.7-2.1.5 0 11.2-1.4 10.7-14 0-1.101.8-2 1.8-2 1.101 0 2 .8 2 1.899.7 16.201-13.899 17.901-14.099 17.901z"/></svg>