<svg xmlns="http://www.w3.org/2000/svg" width="566.9" height="411">
<g fill="#ffffff">
<path d="M509.6 215c7.7-6.9 8.5-18.7 1.6-26.5-3-3.3-6.8-5.4-10.9-6l-.4 2.6c3.6.6 6.9 2.4 9.3 5.2 5.9 6.6 5.2 16.8-1.4 22.7-3.6 3.2-8.5 4.6-13.3 3.8-3.7-.6-6.9-2.4-9.3-5.2-5.9-6.6-5.2-16.8 1.4-22.7 3.7-3.2 8.5-4.6 13.3-3.8l.4-2.6c-5.4-.9-11.1.5-15.5 4.4-7.8 6.9-8.5 18.7-1.6 26.5 3 3.3 6.8 5.4 10.9 6.1 5.4.9 11.1-.6 15.5-4.5zM58.3 214.7c7.2.8 11.2-4.5 12.3-14.5 1.2-9.9-2.3-15.6-8.1-16.3-6.4-.8-11.1 4.3-12.3 13.8-1 8.9 2.2 16.3 8.1 17zM346.3 63.9c-7.6-.9-13.2 3.9-14.2 13-1 8.8 4.3 15.1 10.4 15.7 6.8.8 12.4-4.3 13.4-12.8.9-7.9-3.4-15.2-9.6-15.9zM79.9 346.5c6.5-.4 10.2-6.2 9.7-15.7-.5-9-5-16.4-10.9-16-7.2.4-10.2 6.9-9.6 17 .5 9.9 4.9 15 10.8 14.7zM436.9 169c2.9 3.3 6.8 5.3 10.8 6 5.4.9 11.1-.5 15.4-4.4 7.7-6.8 8.4-18.6 1.6-26.2-2.9-3.3-6.8-5.3-10.8-6-5.4-.9-11.1.5-15.4 4.4-7.7 6.8-8.4 18.5-1.6 26.2zm3.3-24.2c3.6-3.2 8.4-4.6 13.2-3.8 3.6.6 6.8 2.4 9.2 5.1 5.8 6.6 5.2 16.6-1.4 22.4-3.6 3.2-8.4 4.6-13.2 3.8-3.6-.6-6.8-2.4-9.2-5.1-5.7-6.5-5.1-16.6 1.4-22.4zM215.1 196.9c-7.5-1-13.1 3.6-14.4 12.5-1.2 8.7 3.9 15 9.9 15.8 6.7.9 12.4-4 13.6-12.3 1.1-7.9-2.9-15.2-9.1-16z"/><path d="M428.5 360.2s-12.5-31.4-14.9-46.4c4.1-2.1 6.8-6.1 7.2-10.6 2.3 1.9 5.2 2.9 8.2 3 1.9 0 3.7-.3 5.4-1 3.3-1.4 5.9-4 7.3-7.3.5-1.1.8-2.3.9-3.5l8.8 1.5s-1.8 17.3-2.6 19.8l-8.4-1.1 7.8 22.9 14.2-18.7-7.4-1.7 3-19.4c.9-.6 42.8 7.8 42.6 7.8 0 0-.4 9.7-2.2 19.2l-8.3-.9s-53.8 72.7-65.1 84.7c0 0-20.1-7.7-23.6-17-.7-.5 27.7-31 27.1-31.3zm-64.4-27.3c-.3-10.1-4.6-15.1-11.9-14.9-5.9.2-11.2 6.5-10.9 15.5l.6 16.6 9.1 1.7.8 18.1c-.7.8-43.5 1.5-43.3 1.5 0 0-1.5-9.6-1.6-19.3l9.9-.9-.8-36.1c-.3-.3-8.7.7-9 .7-.1 0-3-20.3-3-21.1 0-.8 29.8-4.7 29.8-4.7l5.1 10.7s6.7-9.7 19.5-10c4.4-.1 8.9.4 13 1.8-1.8 6.9-1.6 14.4 1 21.6.2.8.4 1.4.6 1.9 2 4.9 6.8 8.2 12.2 8.3 1.7 0 3.3-.3 4.9-.9.1 1.6.2 3.3.3 5l.4 19.8 6.4 1.2s1.5 14.8.5 19.6l-39.1.6s-1.5-16.6-1.3-19.2l7.4-1.6-.6-15.9zm-102-16.5c-.3-.3-11.7-1.2-12-1.3-.1 0 .4-19.9.5-20.7.1-.7 31.9 2.3 41.7 6.2l-7.2 49.6 12 3.7-2.3 18c-.8.6-52-7.2-51.9-7.2 0 0 .2-9.7 1.7-19.3l12.9 1.3 4.6-30.3zm-58.4 14.4c.4-10.1-3.7-15.4-10.9-15.7-5.9-.2-11.5 5.8-11.9 14.8l-.5 16.6 9 2.3-.4 18.1c-.8.7-43.5-1.3-43.3-1.3 0 0-.9-9.7-.4-19.4l10-.2 1.4-36.1c-.3-.3-8.8.1-9.1.1-.2 0-1.7-20.5-1.6-21.2 0-.8 30-2.8 30-2.8l4.4 11s7.3-9.3 20.1-8.8c15.4.6 30.7 8.4 29.5 39.8l-.9 19.8 6.3 1.6s.5 14.8-.7 19.6l-39.1-1.9s-.5-16.6-.1-19.2l7.4-1.1.8-16zM20.2 181.6l-11.1-1.3c1-9.6 1.5-22.3 1.5-22.3-.1 0 33.8-1.5 34.4-.7.2.9 2.4 7 2.4 7s5.1-6.1 20.4-4.3c13.8 1.6 33.3 13 29.7 43.9-3.6 31.2-22.6 36.3-37.9 34.5-12.7-1.5-16.8-6.8-16.8-6.8L41 246.4s14.4 3.3 14.9 3.9c.8.9-1.9 20.3-1.8 20.3.3 0-54.5-6.1-54.1-6.3l1.5-20.5 11.5.4 7.2-62.6zM136 51.3s.7-15.7 2.7-20.3l34.7 4.5s-2 10-7.1 36.1c-2 10 .4 15.8 7.6 17.2 5.8 1.2 10.9-4.2 12.7-13.1l2-10.6-9.8-2.4 3.1-21.5 37.6 4.6L209.2 97c.2.4 8.9 3.8 9.2 3.9.1 0-4.2 21.9-4.4 22.6-.2.7-28.3-4.7-28.3-4.7l-1.2-7.1s-9.5 5.7-22.2 3.2c-15.2-3.1-30-13.5-23.7-44.6l3.6-17-6.2-2zm145.8 188c-.1 0-3.7-19.9-3.4-20.1.2-.3 40.6-36.7 39.9-36.7-.6 0-13.7-1.8-14-1.5-.3.1-1.8 9.6-1.8 9.6s-21.3-1.9-22.5-2.5c-1.2-.5.9-25.1.9-25.1s27 .5 47.3 1c-2 3-2.8 6.7-1.9 10.4 1.1 4.9 4.8 8.7 9.5 10-3.7 3.2-5.4 8.2-4.3 13.1.3 1.5.9 2.9 1.7 4.2-9.3 8.2-18.4 16.3-18.1 16.3.3 0 15.2.9 15.6.6.2-.3.5-9.1.9-9 .3 0 22 .7 22.8 1.8.9.9-1.2 29.4-1.2 29.4l-71.4-1.5zm14.3 31c-1.2 8.1-6 15.5-16.2 14-10.3-1.5-15.1-8.1-14.1-17.6 1.2-9.6 9-14.6 16.9-13.4 8.1 1.2 14.5 9.1 13.4 17zm-57.5-148.9s-2.8-11-4.1-20.7l9.9-2.1-5.1-35.5c-.3-.3-8.7 1.7-9 1.8-.1 0-5.2-18.5-5.3-19.3-.1-.8 29.7-9.8 29.7-9.8l6.3 9.6s4.1-8 16.9-9.9c13.6-2 25.4 7.2 25.4 8.3.1 2.8-12.4 23.7-12.9 23.3-2.2-1.7-7.1-5.1-12.4-4.3-7.8 1.2-12.1 8.2-10.8 17.2 1.4 9.8 3.3 14.3 3.3 14.3l15.7-.3 3.2 19.6c-.7.9-50.9 7.8-50.8 7.8zm18.6 33.7c-.5.1-45 8.2-45.6 7.8-2.2-1.5-6.4-19.3-6.4-19.3s45-11.9 45.7-11.5c1.4.7 6.8 22.9 6.3 23zm91.4 48.8h-.2c-.5.2-1 .4-1.5.5-.8.2-1.6.3-2.5.3-4.7-.1-8.7-3.4-9.7-8-1-4.5 1.2-9.2 5.3-11.3l-.9-3.8c-4.7-.1-8.7-3.4-9.7-7.9-1.1-4.7 1.3-9.5 5.7-11.5l-.9-3.8h-.3c-4.7-.1-8.7-3.4-9.8-8-.6-2.7-.1-5.4 1.3-7.7 1.5-2.3 3.7-3.9 6.4-4.5.5-.1 1-.2 1.6-.2h.2c2.1-.4 4.3-.5 6.4-.5 15.6.3 28.9 11.1 32.3 26.4 4.1 17.5-6.3 35.1-23.7 40zm9-85.9c.1-.5-.6-7.9-.6-7.9s-7.2 9.3-22.6 7.6c-13.9-1.6-32.4-13-28.9-44.2 3.2-28.8 22.7-35.2 38.1-33.5 12.9 1.4 21.6 10.1 21.6 10.1l.8-7.6s32.2 2.5 32.2 3.3c-.1.8-1.2 20.3-1.4 20.3-.3 0-11.2 1-11.5 1.3-.5.3-3.3 32-3.3 32 .2 0 12.6 1.3 12.6 2.3.2 1.1-2.1 21.2-2.7 21.2-.5 0-34.4-4.5-34.3-4.9zm-21.5-99.9s45.2-13 45.9-12.6c1.3.6 7.2 22.9 6.8 23-.5.1-45.2 9.3-45.8 9-2.3-1.5-6.9-19.4-6.9-19.4zm-199.9 148s4.5-7.7 17.3-8.7c13.5-1.1 24.7 8.7 24.6 9.7-.1 2.7-13.7 22.7-14.2 22.3-2.1-1.8-6.7-5.5-11.9-5-7.8.7-12.6 7.3-11.8 16.3.8 9.8 2.4 14.3 2.4 14.3l15.5.7 2 19.5c-.7.8-50.8 4.6-50.7 4.6 0 0-2.1-11-2.8-20.7l9.9-1.4-2.8-35.4c-.3-.3-8.7 1.2-9 1.2-.2 0-4-18.6-4.1-19.4-.1-.7 29.9-7.8 29.9-7.8l5.7 9.8zm-64.1 126c12.8-.7 18.2 4.6 18.2 4.6l-.8-15.7s-11.1-1-11.7-1.5c-.9-.7-.3-18.9-.4-18.9-.3 0 39.3-2.5 39.1-2.2l4.9 85 12.1.1c.7 9.6 1.4 22.3 1.4 22.3.2 0-34.6 3.1-35.4 2.4l-2.1-5.3s-3.3 6.8-18.6 7.7c-13.9.8-35.6-7.1-37.4-38.2-1.9-31.2 15.4-39.4 30.7-40.3zM225 250.7c.1-.5-.5-7.8-.5-7.8s-7.3 9.1-22.6 7c-13.8-1.9-31.8-13.6-27.6-44.4 3.9-28.4 23.3-34.3 38.5-32.3 12.7 1.7 21.1 10.5 21.1 10.5l1-7.5s31.9 3.3 31.8 4c-.1.8-1.7 20-1.8 20-.3 0-11.1.8-11.4 1-.5.2-4 31.6-4 31.6.1 0 12.4 1.5 12.4 2.6.2 1.1-2.5 21-3.1 20.9-.4 0-33.8-5.2-33.8-5.6zM407.3 312c-3.3-.1-6.4-1.7-8.2-4.4l-3.6 1.5c.9 4.7-1.6 9.5-6.1 11.3-1.3.6-2.7.8-4.1.8-4-.1-7.7-2.5-9.2-6.3-.2-.5-.4-.9-.5-1.5v-.2c-6.1-17 2.2-35.7 18.8-42.6 4.4-1.8 9-2.7 13.7-2.6 12.9.2 24.3 7.6 29.9 19.2l.1.1.1.1c.3.4.5.9.7 1.4 1.1 2.5 1.1 5.3 0 7.8-1 2.5-3 4.5-5.5 5.5-1.3.5-2.7.8-4.1.8-3.1-.1-6.1-1.6-8-4.1l-3.6 1.5c.7 4.6-1.8 9.1-6.1 10.9-1.5.5-2.9.8-4.3.8zM538.1 95.7c.4-.5.9-1 1.4-1.4 3.9-2.9 9.4-2.1 12.4 1.8 2.7 3.6 2.2 8.7-1 11.8 19.8 23.8 21.7 56.1 3.3 75.4-.6 10.5-3.2 20.9-7.8 30.7 1.2.9 2.2 1.9 3.2 3.1 8.2 9.4 7.2 23.8-2.2 32-8.8 7.6-21.8 7.3-30.2-.4-.9.6-1.8 1.3-2.7 1.8-1.5 1.3-3.1 2.6-4.8 3.8-37.6 28.2-90.2 21.5-117.5-14.9-25.9-34.6-19.6-83.6 13.3-112.5-4.1-8.9-2.1-19.9 5.7-26.6 7-6.1 16.7-7.1 24.6-3.4-4.2 1.5-7 4.1-6.5 8.5-4.5.5-12.5 3-14.6 14.4-.2 1 .5 2.1 1.6 2.3 1 .2 2.1-.5 2.3-1.6 1.8-9.6 8.5-11.1 11.8-11.3 1.1 2.8 3.2 6 6.5 9.9 20.7 24.3 64.9 36.7 85.1 41.3-6.1-4.9-12.2-10.2-17.5-15.6-19.6-19.9-41.8-48.5-41.8-48.5 18.3-19.4 50.7-19.1 75.4-.6zM62.5 7.8l3.1 21.5-10.5 2.1L57.4 48l29.4-1.4L84.7 28s-8.9-.1-9-.1c-.1 0-3.1-11.5-3.5-20.7 14.7-6 50-4.2 50-4.2s1.5 20.8 1.2 20.9c-.3 0-11.1 2.9-11.1 2.9l7.6 59.8 10.6.2 2 21.7s-47 5-47 4.7C85.6 112.8 83 91 83 91l10.5-2.1-2.3-20-30.9 2s1.8 22.2 2.5 22.1c.8-.1 10.1-1.6 10.2-.5.1 1.1 4 19.8 3.3 20.2-.7.4-45.5 6-47.4 3.7-1.9-2.3-2.6-17.8-2-18.5.5-.7 10.8-2.6 10.8-2.6l-8-62.5s-8.8 1.1-9.6.4c-.8-.7-1.5-22.2-1.5-22.2l43.9-3.2z"/><path d="M0 264.3c-.3.3 54.4 6.4 54.1 6.3-.1 0 2.6-19.5 1.8-20.3-.5-.5-14.9-3.9-14.9-3.9l1.7-14.9s4.1 5.3 16.8 6.8c15.3 1.8 34.3-3.3 37.9-34.5 3.6-30.9-15.9-42.3-29.7-43.9-15.3-1.8-20.4 4.3-20.4 4.3s-2.2-6-2.4-7c-.7-.8-34.6.7-34.4.7 0 0-.6 12.7-1.5 22.3l11.1 1.3-7.1 62.7-11.5-.4L0 264.3zm62.5-80.5c5.8.7 9.3 6.4 8.1 16.3-1.2 10-5.1 15.4-12.3 14.5-5.9-.7-9.1-8.1-8-17.1 1-9.3 5.7-14.4 12.2-13.7zM100.6 164.1c.1.8 3.9 19.4 4.1 19.4.3 0 8.7-1.5 9-1.2l2.8 35.4-9.9 1.4c.7 9.6 2.8 20.7 2.8 20.7-.1 0 50-3.8 50.7-4.6l-2-19.5-15.5-.7s-1.6-4.6-2.4-14.3c-.8-9 4-15.6 11.8-16.3 5.3-.4 9.8 3.3 11.9 5 .5.4 14.1-19.5 14.2-22.3.1-1.1-11.1-10.9-24.6-9.7-12.8 1.1-17.3 8.7-17.3 8.7l-5.7-9.8s-30 7.1-29.9 7.8zM262 235.4c0-1.1-12.3-2.6-12.4-2.6 0 0 3.5-31.4 4-31.6.3-.3 11.1-1.1 11.4-1 .2 0 1.7-19.3 1.8-20 .1-.7-31.8-4-31.8-4l-1 7.5s-8.4-8.8-21.1-10.5c-15.3-2.1-34.7 3.8-38.5 32.3-4.2 30.8 13.9 42.6 27.6 44.4 15.3 2.1 22.6-7 22.6-7s.5 7.4.5 7.8c-.1.4 33.4 5.6 33.8 5.7.6 0 3.3-19.9 3.1-21zm-51.3-10.1c-6-.8-11.1-7.1-9.9-15.8 1.2-9 6.9-13.5 14.4-12.5 6.1.8 10.2 8.1 9.1 16-1.2 8.3-6.9 13.2-13.6 12.3zM205.3 143.6s4.1 17.8 6.4 19.3c.6.4 45.1-7.7 45.6-7.8.5-.1-4.9-22.3-6.2-22.9-.8-.5-45.8 11.4-45.8 11.4zM78.6 370.7c15.4-.9 18.6-7.7 18.6-7.7l2.1 5.3c.8.7 35.6-2.4 35.4-2.4 0 0-.7-12.7-1.4-22.3l-12.1-.1-4.9-85c.3-.3-39.4 2.2-39.1 2.2.2 0-.5 18.2.4 18.9.6.4 11.7 1.5 11.7 1.5l.9 15.7s-5.4-5.3-18.2-4.6c-15.4.8-32.6 9.1-30.9 40.4 1.9 31 23.7 38.9 37.5 38.1zm.1-55.9c5.9-.3 10.4 7 10.9 16 .5 9.5-3.2 15.3-9.7 15.7-5.9.3-10.2-4.7-10.8-14.7-.6-10.1 2.4-16.6 9.6-17zM29.6 32.9l8 62.5S27.4 97.3 26.8 98c-.6.7.1 16.2 2 18.5 1.9 2.3 46.7-3.3 47.4-3.7.7-.4-3.2-19.2-3.3-20.2.1-1.1-9.3.4-10 .4-.8.1-2.5-22.1-2.5-22.1l30.9-2 2.3 20L83 91s2.5 21.8 2.5 22.1c0 .3 47-4.7 47-4.7l-2-21.7-10.5-.3-7.6-59.8s10.8-2.8 11.1-2.9c.3 0-1.2-20.9-1.2-20.9S87 1.2 72.2 7.2c.4 9.1 3.3 20.7 3.5 20.7.2 0 9 .1 9 .1l2.1 18.6L57.4 48l-2.3-16.6 10.5-2.1-3.1-21.5-43.9 3.4s.6 21.5 1.5 22.2c.8.6 9.5-.5 9.5-.5zM162.3 114.8c12.7 2.5 22.2-3.2 22.2-3.2l1.2 7.1s28.1 5.5 28.3 4.7c.1-.7 4.5-22.6 4.4-22.6-.3-.1-8.9-3.5-9.2-3.9l10.3-51.3-37.6-4.6-3.1 21.5 9.8 2.4-2 10.6c-1.8 9-6.9 14.3-12.7 13.1-7.2-1.4-9.6-7.2-7.6-17.2 5.1-26 7.1-36.1 7.1-36.1L138.6 31c-2 4.6-2.7 20.3-2.7 20.3l6.2 1.9-3.6 17c-6.2 31.1 8.5 41.5 23.8 44.6zM286.2 94l-15.7.3s-1.9-4.5-3.3-14.3c-1.3-9.1 3-16 10.9-17.2 5.3-.8 10.1 2.7 12.4 4.3.5.4 13-20.6 12.9-23.3 0-1.1-11.8-10.3-25.4-8.3-12.8 1.9-16.9 9.9-16.9 9.9l-6.3-9.6s-29.8 9-29.7 9.8c.1.8 5.2 19.3 5.3 19.3.3 0 8.6-2 9-1.8l5.1 35.5-9.9 2.1c1.3 9.7 4.1 20.7 4.1 20.7-.2 0 50.1-6.9 50.8-7.8L286.2 94zM388.8 28.5c.5-.1-5.5-22.4-6.8-23-.7-.4-45.9 12.6-45.9 12.6s4.6 17.9 6.9 19.3c.5.4 45.3-8.8 45.8-8.9zM394.5 101.7c0-1.1-12.5-2.3-12.6-2.3 0 0 2.8-31.7 3.3-32 .3-.3 11.2-1.3 11.5-1.3.2 0 1.3-19.5 1.4-20.3.1-.8-32.2-3.3-32.2-3.3l-.8 7.6s-8.7-8.6-21.6-10.1c-15.5-1.7-34.9 4.7-38.1 33.5-3.5 31.2 15 42.7 28.9 44.2 15.5 1.7 22.6-7.6 22.6-7.6s.7 7.4.6 7.9c-.1.4 33.8 4.9 34.3 4.9.6.1 2.9-20.1 2.7-21.2zm-52.1-9c-6.1-.7-11.3-7-10.4-15.7 1-9.1 6.6-13.8 14.2-13 6.2.7 10.5 7.9 9.6 16-.9 8.4-6.5 13.4-13.4 12.7zM372.5 163.8c-3.4-15.3-16.7-26.1-32.3-26.4-2.1 0-4.3.1-6.4.5h-.2c-.6 0-1.1.1-1.6.2-2.7.6-4.9 2.2-6.4 4.5s-1.9 5-1.3 7.7c1 4.6 5 7.9 9.8 8h.3l.9 3.8c-4.4 2-6.8 6.8-5.7 11.5 1 4.5 5 7.8 9.7 7.9l.9 3.8c-4.2 2.1-6.4 6.8-5.3 11.3 1 4.6 5 7.9 9.7 8 .8 0 1.6-.1 2.5-.3.5-.1 1-.3 1.5-.5h.2c17.2-4.8 27.6-22.4 23.7-40zM195.9 367.2l39.1 1.9c1.2-4.8.7-19.6.7-19.6l-6.3-1.6.9-19.8c1.1-31.4-14.2-39.2-29.5-39.8-12.8-.5-20.1 8.8-20.1 8.8l-4.4-11s-30 2.1-30 2.8c0 .8 1.5 21.2 1.6 21.2.3 0 8.8-.4 9.1-.1l-1.4 36.1-10 .2c-.5 9.7.4 19.4.4 19.4-.1 0 42.5 2 43.3 1.3l.4-18.1-9-2.3.5-16.6c.3-9.1 6-15 11.9-14.8 7.2.3 11.3 5.5 10.9 15.7l-.4 16.1-7.4 1.1c-.7 2.5-.3 19.1-.3 19.1zM265.8 266.7c-1.1 9.5 3.8 16.1 14.1 17.6 10.2 1.5 15-5.9 16.2-14 1.1-7.9-5.3-15.9-13.4-17-7.9-1.1-15.7 3.8-16.9 13.4zM243 364.7c-.1 0 51 7.8 51.9 7.2l2.3-18-12-3.7 7.2-49.6c-9.8-3.9-41.6-6.9-41.7-6.2-.1.7-.7 20.7-.5 20.7.3 0 11.8.9 12 1.3l-4.5 30.3-12.9-1.3c-1.6 9.6-1.8 19.3-1.8 19.3z"/><path d="M354.3 211.2c-.7-1.1-22.5-1.8-22.8-1.8-.5 0-.8 8.7-.9 9-.3.3-15.2-.6-15.6-.6-.2 0 8.8-8.1 18.1-16.3-.8-1.3-1.4-2.7-1.7-4.2-1.1-4.9.6-9.9 4.3-13.1-4.7-1.3-8.4-5.1-9.5-10-.8-3.7-.1-7.4 1.9-10.4-20.3-.5-47.3-1-47.3-1s-2.1 24.6-.9 25.1c1.2.6 22.5 2.5 22.5 2.5s1.5-9.5 1.8-9.6c.3-.3 13.4 1.5 14 1.5.6 0-39.8 36.4-39.9 36.7-.3.3 3.3 20.1 3.4 20.1l71.4 1.3c.1.2 2.1-28.3 1.2-29.2zM358.6 369.8l39.1-.6c.9-4.9-.5-19.6-.5-19.6l-6.4-1.2-.4-19.8c0-1.8-.1-3.4-.3-5-1.6.6-3.2.9-4.9.9-5.3-.1-10.1-3.4-12.2-8.3-.2-.5-.5-1.2-.6-1.9-2.6-7.2-2.8-14.7-1-21.6-4.1-1.5-8.6-2-13-1.8-12.8.3-19.5 10-19.5 10l-5.1-10.7s-29.8 4-29.8 4.7c0 .8 2.8 21.1 3 21.1.3 0 8.7-1 9-.7l.8 36.1-9.9.9c.1 9.7 1.6 19.3 1.6 19.3-.2 0 42.6-.7 43.3-1.5L351 352l-9.1-1.7-.6-16.6c-.2-9.1 5-15.4 10.9-15.5 7.3-.2 11.6 4.8 11.9 14.9l.6 16.1-7.4 1.6c-.2 2.4 1.3 19 1.3 19zM401.5 391.3c3.5 9.3 23.6 17 23.6 17 11.4-12 65.1-84.7 65.1-84.7l8.3.9c1.8-9.5 2.2-19.2 2.2-19.2.1 0-41.8-8.4-42.6-7.8l-3 19.4 7.4 1.7-14.2 18.7-7.8-22.9 8.4 1.1c.7-2.5 2.6-19.8 2.6-19.8l-8.8-1.5c-.1 1.2-.4 2.3-.9 3.5-1.4 3.3-3.9 5.9-7.3 7.3-1.7.7-3.5 1.1-5.4 1-3-.1-5.9-1.1-8.2-3-.5 4.5-3.1 8.5-7.2 10.6 2.4 15.1 14.9 46.4 14.9 46.4.5.5-27.9 31-27.1 31.3z"/><path d="M417.6 300.3l3.6-1.5c1.9 2.5 4.8 4 8 4.1 1.4 0 2.8-.2 4.1-.8 2.5-1 4.5-3 5.5-5.5s1-5.3 0-7.8c-.2-.5-.4-1-.7-1.4l-.1-.1-.1-.1c-5.6-11.6-17-19-29.9-19.2-4.7-.1-9.3.8-13.7 2.6-16.6 6.9-24.9 25.7-18.8 42.6v.2c.2.6.3 1.1.5 1.5 1.6 3.7 5.2 6.2 9.2 6.3 1.4 0 2.8-.2 4.1-.8 4.4-1.8 7-6.6 6.1-11.3l3.6-1.5c1.9 2.7 4.9 4.4 8.2 4.4 1.4 0 2.8-.2 4.1-.8 4.4-1.8 7-6.3 6.3-10.9z"/><path d="M475.1 239.1c-3.5-3.5-.9-6.7-.6-7 .6-.6.5-1.6-.1-2.2-.7-.6-1.6-.5-2.2.1-.8 1-1.8 2.6-1.9 4.6-13.7 6.4-31.5 4.3-45.3-5.4-13.5-9.5-21.4-24.8-20.3-39.4 1.4-.4 2.8-1.1 4.2-2.6.6-.6.6-1.6 0-2.2-.6-.6-1.6-.6-2.2 0-1 1-2 1.5-2.9 1.8-.1 0-.2-.1-.3-.1-.3 0-.7 0-1 .2-1.5-.1-2.6-.9-2.8-1.1-.6-.6-1.6-.5-2.2.1-.6.6-.5 1.6.1 2.2.8.7 2.2 1.5 3.9 1.8-1 15.6 7.4 31.8 21.7 41.8 14.4 10.2 33 12.5 47.5 6.1.4 1.1 1.1 2.3 2.3 3.4.6.6 1.6.6 2.2 0 .5-.5.5-1.5-.1-2.1zM438.2 186.9c-1.7 8 1.1 16.6 7.9 22 6.9 5.4 15.9 6 23.2 2.4-6.8-.3-13.7-2.7-19.5-7.2-5.7-4.6-9.6-10.7-11.6-17.2zM499.1 230.3c0-1.9-1.7-3.2-3.8-2.8-2.1.4-3.7 2.3-3.7 4.2 0 1.9 1.7 3.2 3.8 2.8 2.1-.4 3.7-2.3 3.7-4.2zM413 162.1c-1.7 1.3-2.1 3.5-1 5.1 1.1 1.5 3.4 1.7 5.1.5 1.7-1.3 2.1-3.5 1-5.1-1.1-1.6-3.4-1.8-5.1-.5zM417.2 155.1c1.7-1.3 2.2-3.5 1.1-4.9-1.1-1.4-3.3-1.6-5-.3-1.7 1.3-2.2 3.5-1.1 4.9 1.1 1.4 3.3 1.5 5 .3zM405.1 164.1c1.7-1.3 2.2-3.5 1.1-4.9-1.1-1.4-3.3-1.6-5-.3-1.7 1.3-2.2 3.5-1.1 4.9 1.1 1.5 3.3 1.6 5 .3zM510.9 166.5c-7.3-3.1-15.4-1.8-21.3 2.9 6.2-.8 12.7-.1 18.9 2.6 6.2 2.7 11.2 6.9 14.9 11.9-.6-7.4-5.2-14.3-12.5-17.4zM543 230.4c.5 12.6-10.2 14-10.7 14-1.1.1-1.8 1.1-1.7 2.1.1 1.1 1.1 1.8 2.1 1.7.2 0 14.8-1.7 14.1-18 0-1.1-.9-1.9-2-1.9-1 .1-1.9 1-1.8 2.1zM507.8 231.9c-1.8.3-3.3 2.1-3.3 3.9 0 1.8 1.5 3 3.4 2.7 1.8-.3 3.3-2.1 3.2-3.9 0-1.9-1.5-3.1-3.3-2.7zM497.2 241.1c-1.8.3-3.3 2.1-3.2 3.9 0 1.8 1.6 3 3.4 2.7 1.8-.3 3.3-2.1 3.2-3.9-.1-1.9-1.6-3.1-3.4-2.7z"/><path d="M438.9 167.2c2.4 2.7 5.6 4.5 9.2 5.1 4.8.8 9.6-.6 13.2-3.8 6.6-5.8 7.2-15.9 1.4-22.4-2.4-2.7-5.6-4.5-9.2-5.1-4.8-.8-9.6.6-13.2 3.8-6.6 5.8-7.2 15.9-1.4 22.4zm5.5-17.9c4.1-3.6 10.3-3.2 13.9.8 3.6 4.1 3.2 10.3-.9 13.9-4.1 3.6-10.3 3.2-13.9-.8-3.6-4.1-3.2-10.3.9-13.9zM486.6 188.9c-6.6 5.9-7.3 16-1.4 22.7 2.5 2.8 5.7 4.6 9.3 5.2 4.8.8 9.7-.6 13.3-3.8 6.6-5.9 7.2-16 1.4-22.7-2.5-2.8-5.7-4.6-9.3-5.2l.4-2.6-.4 2.6c-4.8-.8-9.7.6-13.3 3.8zm18 5.6c3.6 4.1 3.2 10.3-.8 13.9-4.1 3.6-10.3 3.2-13.9-.8-3.6-4.1-3.2-10.3.8-13.9 4.1-3.7 10.3-3.3 13.9.8z"/><path d="M546.4 214c4.5-9.7 7.1-20.1 7.8-30.7 18.4-19.4 16.5-51.7-3.3-75.4 3.3-3 3.8-8.1 1-11.8-2.9-3.9-8.5-4.7-12.4-1.8-.5.4-1 .9-1.4 1.4-24.8-18.6-57.1-18.9-75.5.5 0 0 22.3 28.7 41.8 48.5 5.3 5.4 11.4 10.7 17.5 15.6-20.2-4.6-64.4-17-85.1-41.3-3.3-3.9-5.4-7.2-6.5-9.9-3.2.2-10 1.8-11.8 11.3-.2 1.1-1.2 1.7-2.3 1.6-1.1-.2-1.7-1.2-1.6-2.3 2.1-11.4 10.1-13.9 14.6-14.4-.5-4.5 2.3-7.1 6.5-8.5-7.9-3.7-17.6-2.7-24.6 3.4-7.8 6.8-9.8 17.7-5.7 26.6-32.9 29-39.2 77.9-13.3 112.5 27.3 36.4 79.9 43.1 117.5 14.9 1.6-1.2 3.2-2.5 4.8-3.8l2.7-1.8c8.4 7.7 21.4 8 30.2.4 9.5-8.2 10.5-22.5 2.2-32-.8-1.1-1.9-2.1-3.1-3zm-107.9-71.2c4.4-3.9 10.1-5.3 15.4-4.4 4 .7 7.9 2.7 10.8 6 6.8 7.7 6.1 19.4-1.6 26.2-4.4 3.9-10.1 5.3-15.4 4.4-4-.7-7.9-2.7-10.8-6-6.8-7.7-6.1-19.4 1.6-26.2zm30.9 68.4c-7.3 3.6-16.4 3-23.2-2.4-6.9-5.4-9.7-14-7.9-22 1.9 6.6 5.9 12.6 11.7 17.2 5.7 4.6 12.6 6.9 19.4 7.2zm-56.1-61.4c1.7-1.3 4-1.1 5 .3 1.1 1.4.6 3.6-1.1 4.9-1.7 1.3-4 1.1-5-.3-1.1-1.4-.6-3.6 1.1-4.9zm-.3 12.3c1.7-1.3 4-1 5.1.5 1.2 1.5.7 3.8-1 5.1-1.7 1.3-4 1.1-5.1-.5-1.1-1.6-.7-3.9 1-5.1zm-11.8-3.2c1.7-1.3 3.9-1.1 5 .3 1.1 1.4.6 3.6-1.1 4.9-1.7 1.3-3.9 1.1-5-.3-1.1-1.4-.6-3.6 1.1-4.9zm73.9 82.4c-.6.6-1.6.6-2.2 0-1.1-1.1-1.9-2.3-2.3-3.4-14.5 6.4-33.1 4.1-47.5-6.1-14.3-10-22.6-26.3-21.7-41.8-1.7-.3-3.1-1.1-3.9-1.8-.6-.6-.7-1.5-.1-2.2.6-.7 1.5-.7 2.2-.1.2.2 1.3 1 2.8 1.1.3-.2.6-.3 1-.2.1 0 .2 0 .3.1.9-.2 1.9-.7 2.9-1.8.6-.6 1.6-.6 2.2 0 .6.6.6 1.6 0 2.2-1.4 1.4-2.9 2.2-4.2 2.6-1 14.6 6.8 29.9 20.3 39.4 13.9 9.7 31.6 11.8 45.3 5.4.2-2 1.1-3.7 1.9-4.6.6-.6 1.5-.7 2.2-.1.6.6.7 1.5.1 2.2-.3.4-2.9 3.6.6 7 .7.5.7 1.5.1 2.1zm16.5-9.7c0-1.9 1.6-3.8 3.7-4.2 2.1-.4 3.7.9 3.8 2.8 0 1.9-1.6 3.8-3.7 4.2-2.1.5-3.8-.8-3.8-2.8zm5.7 16.1c-1.8.3-3.3-.9-3.4-2.7 0-1.8 1.4-3.6 3.2-3.9 1.8-.3 3.3.9 3.4 2.7.1 1.8-1.3 3.6-3.2 3.9zm10.6-9.2c-1.8.3-3.3-.9-3.4-2.7 0-1.8 1.4-3.6 3.3-3.9 1.8-.3 3.3.9 3.3 2.7.1 1.8-1.3 3.6-3.2 3.9zm1.7-23.5c-4.4 3.9-10.2 5.4-15.6 4.4-4.1-.7-7.9-2.7-10.9-6.1-6.9-7.8-6.1-19.6 1.6-26.5 4.4-3.9 10.2-5.3 15.5-4.4 4.1.7 7.9 2.7 10.9 6 7 7.9 6.2 19.7-1.5 26.6zm-1.1-43c-6.2-2.7-12.7-3.4-18.9-2.6 5.8-4.7 13.9-6 21.3-2.9 7.3 3.1 11.9 10 12.5 17.4-3.6-5.1-8.7-9.3-14.9-11.9zm24.2 76.2c-1.1.1-2-.7-2.1-1.7-.1-1 .7-2 1.7-2.1.5 0 11.2-1.4 10.7-14 0-1.1.8-2 1.8-2 1.1 0 2 .8 2 1.9.7 16.2-13.9 17.9-14.1 17.9z"/>
</g>
</svg>