<svg xmlns="http://www.w3.org/2000/svg" width="141.7" height="141.7"><circle fill="#324A5E" cx="71.4" cy="71" r="70.9"/><path fill="#FFF" d="M103.5 113.2H45c-2.7 0-4.9-2.2-4.9-4.9V33.7c0-2.7 2.2-4.9 4.9-4.9h58.5c2.7 0 4.9 2.2 4.9 4.9v74.6c0 2.7-2.2 4.9-4.9 4.9z"/><path fill="#FF7058" d="M53.2 28.8H45c-2.7 0-4.9 2.2-4.9 4.9v74.6c0 2.7 2.2 4.9 4.9 4.9h8.3V28.8z"/><path fill="#4CDBC4" d="M87.5 81.1c-1.2-.7-2.7-1-4.1-.7L81 81c-.9.2-1.9-.4-2-1.4l-1.7-16.1c-.1-1 .7-1.8 1.6-1.8h2.4c1.5 0 2.9-.6 3.9-1.5L84 48.7c-1.5-.9-3.5-1.2-5.3-.3-1.4.7-2.7 1.5-3.9 2.3-4.6 3.3-7.1 8.9-6.5 14.6l1.5 14.3c.6 5.7 4.3 10.7 9.6 13 1.3.6 2.7 1 4.2 1.4 1.9.5 3.8-.1 5.1-1.4l-1.2-11.5z"/><circle fill="#324A5E" cx="46.6" cy="43.8" r="3.4"/><path fill="#FFD05B" d="M44.6 45.7h-8.4c-1 0-1.9-.8-1.9-1.9 0-1 .8-1.9 1.9-1.9h8.4c1 0 1.9.8 1.9 1.9-.1 1.1-.9 1.9-1.9 1.9z"/><circle fill="#324A5E" cx="46.6" cy="62" r="3.4"/><path fill="#FFD05B" d="M44.6 63.9h-8.4c-1 0-1.9-.8-1.9-1.9 0-1 .8-1.9 1.9-1.9h8.4c1 0 1.9.8 1.9 1.9-.1 1.1-.9 1.9-1.9 1.9z"/><circle fill="#324A5E" cx="46.6" cy="80.2" r="3.4"/><path fill="#FFD05B" d="M44.6 82.1h-8.4c-1 0-1.9-.8-1.9-1.9 0-1 .8-1.9 1.9-1.9h8.4c1 0 1.9.8 1.9 1.9-.1 1.1-.9 1.9-1.9 1.9z"/><circle fill="#324A5E" cx="46.6" cy="98.5" r="3.4"/><path fill="#FFD05B" d="M44.6 100.3h-8.4c-1 0-1.9-.8-1.9-1.9 0-1 .8-1.9 1.9-1.9h8.4c1 0 1.9.8 1.9 1.9-.1 1.1-.9 1.9-1.9 1.9z"/></svg>