<svg xmlns="http://www.w3.org/2000/svg" width="141.7" height="141.7"><circle fill="#FFF" cx="70.9" cy="70.9" r="70.9"/><path fill="#FF7058" d="M65.8 101.8c.8-2.9 2.8-5.5 5.5-6.8 1.1-.5 2.1-1.2 2.9-2.1 5.9-5.7 5-16.3-2-23.6-7.1-7.3-17.6-8.7-23.5-3-.9.9-1.6 1.8-2.2 2.9-1.5 2.7-4.1 4.5-7 5.2-3.1.7-6 2.2-8.5 4.5-7.7 7.4-7.3 20.4 1 29.1 8.3 8.6 21.3 9.6 29 2.2 2.4-2.5 4-5.3 4.8-8.4z"/><path fill="#F9B54C" d="M60.8 86.6l41.8-42.3-4.2-4.4-44 40z"/><circle fill="#324A5E" cx="56.9" cy="83.9" r="7.5"/><path fill="#FFD05B" d="M115.9 35.5l-12.3 11.8c-.4.4-1.1.4-1.5 0l-6.8-7c-.4-.4-.4-1.1 0-1.5L107.7 27c.4-.4 1.1-.4 1.5 0l6.8 7c.4.5.4 1.1-.1 1.5z"/><g fill="#324A5E"><circle cx="107.9" cy="31.5" r="1.1"/><circle cx="103.9" cy="35.3" r="1.1"/><circle cx="99.9" cy="39.2" r="1.1"/><g><circle cx="111.4" cy="35.2" r="1.1"/><circle cx="107.4" cy="39" r="1.1"/><circle cx="103.5" cy="42.8" r="1.1"/></g></g><path fill="#E6E9EE" d="M45.8 103.7c-.5.5-1.3.5-1.7 0L36.7 96c-.5-.5-.5-1.3 0-1.7.5-.5 1.3-.5 1.7 0l7.4 7.7c.5.5.5 1.2 0 1.7z"/></svg>