<svg xmlns="http://www.w3.org/2000/svg" width="85" height="74.3"><g fill="#84DBFF"><path d="M58.3.4L42.8 1.6v2.6l15.5 1.3c1.5.1 2.7-1.1 2.7-2.6S59.8.3 58.3.4zM26.4.4l15.5 1.3v2.6L26.4 5.5c-1.5.1-2.8-1.1-2.8-2.5 0-1.6 1.3-2.7 2.8-2.6z"/></g><path fill="#84DBFF" d="M48.7 8.5v-.1c0-4.6-2.8-8.3-6.4-8.3-3.5 0-6.4 3.7-6.4 8.3v.1h12.8z"/><g fill="#FF7058"><path d="M79.2 22.7H54.9l-2 16.6 28-7c2.5-.6 4.2-2.5 4.2-4.7-.1-2.7-2.7-4.9-5.9-4.9zM5.9 22.7h24.2l2 16.6-28-7C1.7 31.7 0 29.8 0 27.6c0-2.7 2.6-4.9 5.9-4.9z"/></g><path fill="#FF7058" d="M58.3 68.1h-11l-.9-11.4 12.8 4.8c1.1.4 1.9 1.8 1.9 3.2-.1 1.9-1.3 3.4-2.8 3.4zM26.7 68.1h11.1l.9-11.4-12.8 4.8c-1.1.4-1.9 1.8-1.9 3.2 0 1.9 1.2 3.4 2.7 3.4z"/><path fill="#FFD05B" d="M32.1 8.4c-1.2 0-2.2 1-2.2 2.2.2 35.3 5.8 63.5 12.7 63.5 6.9 0 12.4-28.2 12.7-63.5 0-1.2-1-2.2-2.2-2.2h-21z"/><ellipse fill="#FFF" cx="42.5" cy="23.5" rx="5.2" ry="8.4"/></svg>