<svg xmlns="http://www.w3.org/2000/svg" width="113.4" height="85"><path fill="#E6E9EE" d="M13.1 22.5h64.3V51H13.1z"/><path fill="#CED5E0" d="M7.2 35.2h87.6v17.5H7.2z"/><g fill="#ACB3BA"><path d="M13.1 39.9H21v8h-7.9zM30.1 39.9H38v8h-7.9zM47 39.9h7.9v8H47zM64 39.9h7.9v8H64zM81 39.9h7.9v8H81z"/></g><path fill="#FFD05B" d="M53.4.1h18.5v22.3H53.4z"/><path fill="#324A5E" d="M53.4 5.1h18.5v3.7H53.4z"/><path fill="#FFD05B" d="M27.8 5.1h18.5v17.4H27.8z"/><path fill="#324A5E" d="M27.8 8.9h18.5v2.9H27.8z"/><path fill="#54C0EB" d="M0 52.7l4.7 32.2h90.6l18.1-32.2z"/><g fill="#FFF"><circle cx="12.4" cy="63.7" r="4.2"/><circle cx="32" cy="63.7" r="4.2"/><circle cx="51.5" cy="63.7" r="4.2"/><circle cx="71" cy="63.7" r="4.2"/><circle cx="90.6" cy="63.7" r="4.2"/></g></svg>