<svg xmlns="http://www.w3.org/2000/svg" width="141.7" height="141.7"><circle fill="#FFF" cx="71" cy="71.1" r="70.9"/><path fill="#FFD05B" d="M52 35.1c-6.7 4.8-9.9 16.8-9.9 22.7 0 16.6 12.3 35.8 29 35.8 16.6 0 30.1-19.2 30.1-35.8 0-6-1.8-17.4-7-23.9 0 0-8.8 17.9-9 13-.7-21.8-14.1-29.1-14.1-29.1 1.3 28-8.6 16.4-11.4 35.5C59 58.1 52 35.1 52 35.1z"/><path fill="#FF7058" d="M61 62.3c-3.7 2.6-5.4 9-5.4 12.1 0 8.9 6.7 19.1 15.8 19.1 9.1 0 16.4-10.2 16.4-19.1 0-3.2-1-9.3-3.8-12.8 0 0-4.8 9.6-4.9 6.9-.4-11.7-7.7-15.5-7.7-15.5.7 15-4.7 8.8-6.2 18.9-.4 2.8-4.2-9.6-4.2-9.6z"/><g><path fill="#324A5E" d="M109 106L35.3 82.3c-.7-.2-1.5.2-1.7.9l-1.5 4.7c-.2.7.2 1.5.9 1.7l73.7 23.6c.7.2 1.5-.2 1.7-.9l1.5-4.7c.3-.6-.1-1.4-.9-1.6z"/><path fill="#4CDBC4" d="M109.9 87.9l-1.5-4.7c-.2-.7-1-1.1-1.7-.9L33 106c-.7.2-1.1 1-.9 1.7l1.5 4.7c.2.7 1 1.1 1.7.9L109 89.7c.8-.3 1.2-1 .9-1.8z"/></g></svg>