<svg xmlns="http://www.w3.org/2000/svg" width="85" height="85"><path fill="#54C0EB" d="M85 29.2h-7.8l-9.3 15 7.7 12.7-7.7 12.6 9.3 15H85V62.7l-9.1-5.8L85 51z"/><path fill="#E6E9EE" d="M31.1 25.1h14.8v13.3H31.1z"/><path fill="#FFD05B" d="M27.6 25.1h21.9v5.8H27.6z"/><path fill="#FD8469" d="M41 25.1h-5V6.7c0-.6-.5-1.1-1.1-1.1h-7.3V.5h7.3c3.4 0 6.2 2.8 6.2 6.2v18.4z"/><path fill="#84DBFF" d="M77 56.9c0 11.7-19.6 21.3-40 21.3S0 68.6 0 56.9s16.6-21.3 37-21.3 40 9.5 40 21.3z"/><circle fill="#324A5E" cx="24.7" cy="56.9" r="9"/><circle fill="#E6E9EE" cx="24.7" cy="56.9" r="5.1"/><g><circle fill="#324A5E" cx="52.3" cy="56.9" r="9"/><circle fill="#E6E9EE" cx="52.3" cy="56.9" r="5.1"/></g></svg>