<svg xmlns="http://www.w3.org/2000/svg" width="141.7" height="141.7"><circle fill="#324A5E" cx="70.8" cy="70.9" r="70.9"/><path fill="#FFD05B" d="M68 86.1v55.6c-3.9-.2-7.8-.6-11.5-1.4-3.1-.6-6-1.5-8.9-2.5V86.1H68z"/><path fill="#F9B54C" d="M68 86.1v55.6c-3.9-.2-7.8-.6-11.5-1.4V86.1H68z"/><path fill="#FF7058" d="M86.2 35.1v57.3H17.3V58.6c0-13 10.5-23.5 23.5-23.5h45.4z"/><path fill="#F1543F" d="M109.7 92.3h-47V58.6c0-13 10.5-23.5 23.5-23.5s23.5 10.5 23.5 23.5v33.7z"/><path fill="#E6E9EE" d="M120 79.9H79.1c-2.4 0-4.4-2-4.4-4.4V51.9c0-2.4 2-4.4 4.4-4.4H120c2.4 0 4.4 2 4.4 4.4v23.6c0 2.4-1.9 4.4-4.4 4.4z"/><path fill="#E6E9EE" d="M124.4 51.9v23.6c0 1.2-.5 2.4-1.3 3.1-.8.8-1.9 1.2-3 1.2h-41c-1.2 0-2.3-.5-3-1.2-.8-.8-1.3-1.9-1.3-3.1V51.9c0-1.2.5-2.4 1.3-3.1.8-.8 1.9-1.2 3-1.2h41c1.2 0 2.3.5 3 1.2.8.7 1.3 1.9 1.3 3.1z"/><path fill="#CED5E0" d="M123.1 78.6c-.8.8-1.9 1.2-3 1.2h-41c-1.2 0-2.3-.5-3-1.2L99.6 57l23.5 21.6z"/><path fill="#FFF" d="M123.1 48.7L99.6 70.3 76 48.7c.8-.8 1.9-1.2 3-1.2h41c1.2 0 2.3.5 3.1 1.2z"/><path fill="#E6E9EE" d="M30.1 58.9h26.4v7.7H30.1z"/></svg>