<svg xmlns="http://www.w3.org/2000/svg" width="141.7" height="141.7"><circle fill="#334B5E" cx="70.9" cy="70.9" r="70.9"/><path fill="#FFD15C" d="M105.4 79.9v3.5h-67V54.6h-9.2v49.8h9.2V90.8h67v13.6h7.1V79.9z"/><path fill="#8BD7F8" d="M103.9 75.1H38.4v8.3h67v-6.7c0-.9-.7-1.6-1.5-1.6z"/><path fill="#F3715B" d="M52 70.4H38.4v4.7h15v-3.5c0-.6-.6-1.2-1.4-1.2z"/><path fill="#FFF" d="M69.6 32.9c0-3.3 1.1-6.3 2.9-8.8-5.7 2.4-9.7 8-9.7 14.6 0 8.7 7.1 15.8 15.8 15.8 6.6 0 12.2-4 14.6-9.7-2.5 1.8-5.5 2.9-8.8 2.9-8.2 0-14.8-6.6-14.8-14.8z"/></svg>