<svg xmlns="http://www.w3.org/2000/svg" width="141.7" height="141.7"><circle fill="#FFD05B" cx="70.9" cy="70.9" r="70.9"/><path fill="#FFF" d="M99.5 51.3h5.1c1.5 0 2.8-1.2 2.8-2.8v-8.4c0-1.5-1.2-2.8-2.8-2.8h-5.1v14z"/><path fill="#FF7058" d="M99.5 69.4h5.1c1.5 0 2.8-1.2 2.8-2.8v-8.4c0-1.5-1.2-2.8-2.8-2.8h-5.1v14z"/><path fill="#84DBFF" d="M99.5 87.6h5.1c1.5 0 2.8-1.2 2.8-2.8v-8.4c0-1.5-1.2-2.8-2.8-2.8h-5.1v14z"/><path fill="#324A5E" d="M95.7 114.3H40.1c-3.2 0-5.8-2.6-5.8-5.7V33.2c0-3.2 2.6-5.8 5.8-5.8h55.6c3.2 0 5.8 2.6 5.8 5.8v75.3c0 3.2-2.6 5.8-5.8 5.8z"/><path fill="#2B3B4E" d="M43.8 27.5h-3.7c-3.2 0-5.8 2.6-5.8 5.8v75.3c0 3.2 2.6 5.7 5.8 5.7h3.7V27.5z"/><g fill="#FFF"><path d="M74.2 72.9l-3.3 4.3-3.3-4.3c-5.4 1-9.9 4.5-12.4 9.1 3 5.6 8.9 6.7 15.7 6.7 6.8 0 12.7-1.1 15.7-6.7-2.5-4.6-7-8-12.4-9.1zM70.9 70.1c4.1 0 7.5-5.5 7.5-9.6S75 53 70.9 53s-7.5 3.4-7.5 7.5 3.3 9.6 7.5 9.6z"/></g></svg>