<svg xmlns="http://www.w3.org/2000/svg" width="141.7" height="141.7"><path fill="#FF7058" d="M141.7 70.9c0 39.1-31.7 70.9-70.9 70.9C31.7 141.7 0 110 0 70.9 0 31.7 31.7 0 70.9 0c39.1 0 70.8 31.7 70.8 70.9z"/><path fill="#E6E9EE" d="M102.9 60c-.7 0-1.3-.3-1.8-.8L70.9 29.1 40.7 59.3c-1 1-2.7 1-3.7 0s-1-2.7 0-3.7l32-32c.5-.5 1.1-.8 1.8-.8s1.3.3 1.8.8l32 32c1 1 1 2.7 0 3.7-.4.5-1.1.7-1.7.7z"/><path fill="#FFF" d="M109.3 107.4H32.5c-1.4 0-2.5-1.1-2.5-2.5V53.4c0-1.4 1.1-2.5 2.5-2.5h76.8c1.4 0 2.5 1.1 2.5 2.5v51.5c0 1.4-1.2 2.5-2.5 2.5z"/><circle fill="#4CDBC4" cx="70.9" cy="27.1" r="8.5"/><circle fill="#324A5E" cx="70.9" cy="27.1" r="4.9"/><g fill="#324A5E"><path d="M37.9 64.8h3.8l2.8 7.8 2.8-7.8h3.8l-5 12.5h-3.2l-5-12.5zM56.5 72.5l-4.7-7.7h3.9l2.5 4.5 2.6-4.5h3.8l-4.7 7.7v4.7h-3.4v-4.7zM65.8 64.8h5.3c3.1 0 5.1 1.6 5.1 4.4 0 2.9-2.2 4.5-5.3 4.5h-1.7v3.5h-3.4V64.8zm5.1 6.1c1.2 0 2-.6 2-1.6 0-1.1-.7-1.6-2-1.6h-1.6V71h1.6zM77.7 64.8h5.9c1.9 0 3.2.5 4 1.3.7.7 1.1 1.7 1.1 2.9 0 1.9-1 3.1-2.5 3.8l3 4.3h-4l-2.5-3.7h-1.5v3.7h-3.4V64.8zm5.7 5.9c1.2 0 1.8-.6 1.8-1.5 0-1-.7-1.5-1.9-1.5h-2.2v3h2.3zM89.9 71c0-3.6 2.9-6.5 6.7-6.5 3.8 0 6.6 2.8 6.6 6.4 0 3.6-2.9 6.4-6.7 6.4-3.8.1-6.6-2.8-6.6-6.3zm9.8 0c0-1.8-1.3-3.4-3.2-3.4-1.9 0-3.1 1.5-3.1 3.3 0 1.8 1.3 3.3 3.2 3.3 1.9.1 3.1-1.4 3.1-3.2zM44.2 81.6H49c4.4 0 7 2.5 7 6.1 0 3.6-2.6 6.2-7.1 6.2h-4.7V81.6zm4.8 9.3c2.1 0 3.4-1.1 3.4-3.1S51 84.7 49 84.7h-1.4V91H49zM61.3 81.5h3.3L69.8 94h-3.7l-.9-2.2h-4.8l-.8 2.2H56l5.3-12.5zm3 7.6l-1.4-3.5-1.4 3.5h2.8zm-.8-11.4l3.2 1-2.6 1.9h-2.5l1.9-2.9zM71.1 81.6h3.2l5.1 6.5v-6.5h3.4V94h-3l-5.3-6.8V94h-3.4V81.6zM84.6 87.8c0-3.6 2.9-6.5 6.7-6.5 3.8 0 6.7 2.8 6.7 6.4 0 3.6-2.9 6.4-6.7 6.4-3.9.1-6.7-2.7-6.7-6.3zm9.8 0c0-1.8-1.3-3.4-3.2-3.4-1.9 0-3.1 1.5-3.1 3.3 0 1.8 1.3 3.3 3.2 3.3 1.9.1 3.1-1.4 3.1-3.2z"/></g></svg>