<svg xmlns="http://www.w3.org/2000/svg" width="141.7" height="141.7"><circle fill="#324A5E" cx="70.9" cy="70.9" r="70.9"/><path fill="#E6E9EE" d="M54.2 106.5H36.5c-2.6 0-4.6-2.1-4.6-4.6V60.2c0-2.6 2.1-4.6 4.6-4.6h17.7c2.6 0 4.6 2.1 4.6 4.6v41.6c0 2.6-2 4.7-4.6 4.7z"/><path fill="#FFD05B" d="M105.1 71.5h-2.3c2.6 0 4.7 2.1 4.7 4.7 0 1.3-.5 2.5-1.4 3.3-.9.9-2 1.4-3.3 1.4h-2.1c2.6 0 4.7 2.1 4.7 4.7 0 1.3-.5 2.5-1.4 3.3-.9.9-2 1.4-3.3 1.4h-1.9c2.6 0 4.7 2.1 4.7 4.7 0 1.3-.5 2.5-1.4 3.4-.9.9-2 1.4-3.3 1.4H65.5c-3.7 0-6.6-3-6.6-6.6V67.6c0-2 .9-3.9 2.5-5.2l5.5-4.4c6.1-4.9 8-6.3 8-13.8 0-2.8-.5-5.6-1.4-8.3.3-.1.7-.2 1-.3 9.4-2.2 14 6.9 11.3 16.3l-1.4 4.2c-.8 3 1.4 5.9 4.5 5.9h16.2c2.6 0 4.7 2.1 4.7 4.7 0 1.3-.5 2.5-1.4 3.3-.8 1-2 1.5-3.3 1.5z"/><circle fill="#324A5E" cx="42.4" cy="97" r="4.3"/></svg>