<svg xmlns="http://www.w3.org/2000/svg" width="141.7" height="141.7"><circle fill="#FFF" cx="70.9" cy="70.9" r="70.9"/><path fill="#324A5E" d="M53.5 100.1V84.8H47V100c-5.4.9-10 3.9-13 8.3h32.4c-2.9-4.3-7.5-7.3-12.9-8.2z"/><path fill="#4CDBC4" d="M62.7 73.4c7.4-.9 12.1-2.3 12.1-2.3-7.6-3.4-13-9-16.7-14.5 6.6-.7 10.8-1.9 10.8-1.9-14.5-6.5-18.5-23.6-18.5-23.6v.1-.1s-4 17.1-18.5 23.6c0 0 4.2 1.2 10.8 1.9-3.8 5.5-9.2 11.1-16.7 14.5 0 0 4.6 1.3 12.1 2.3-4.4 5.4-10.2 10.6-17.7 14 0 0 12.5 3.6 30.2 3.9 17.7-.3 30.2-3.9 30.2-3.9-7.9-3.4-13.7-8.6-18.1-14z"/><g><path fill="#324A5E" d="M103 82.7V72.2h-4.5v10.5c-3.7.6-6.9 2.7-9 5.7h22.4c-2-2.9-5.2-5.1-8.9-5.7z"/><path fill="#4CDBC4" d="M109.3 64.3c5.1-.6 8.3-1.6 8.3-1.6-5.2-2.3-9-6.2-11.6-10 4.5-.5 7.5-1.3 7.5-1.3-10-4.5-12.8-16.3-12.8-16.3s-2.8 11.8-12.8 16.3c0 0 2.9.8 7.5 1.3-2.6 3.8-6.3 7.7-11.6 10 0 0 3.2.9 8.3 1.6-3 3.8-7 7.3-12.3 9.6 0 0 8.6 2.5 20.9 2.7 12.2-.2 20.9-2.7 20.9-2.7-5.2-2.3-9.2-5.9-12.3-9.6z"/></g></svg>