<svg xmlns="http://www.w3.org/2000/svg" width="141.7" height="141.7"><circle fill="#324A5E" cx="70.9" cy="70.9" r="70.9"/><path fill="#2B3B4E" d="M27.3 33.1h87.2v75.5H27.3z"/><path fill="#E6E9EE" d="M45.4 39.4h11.5v6.8H45.4zM65.6 39.4h11.5v6.8H65.6zM85.8 39.4h11.5v6.8H85.8zM45.4 95.5h11.5v6.8H45.4zM65.6 95.5h11.5v6.8H65.6zM85.8 95.5h11.5v6.8H85.8z"/><g fill="#E6E9EE"><path d="M27.3 39.4h9.4v6.8h-9.4zM106 39.4h8.4v6.8H106zM27.3 95.5h9.4v6.8h-9.4zM106 95.5h8.4v6.8H106z"/></g><path fill="#E6E9EE" d="M103.4 52.2h11.1V89h-11.1zM47.4 52.2h47V89h-47zM27.3 52.2h11.1V89H27.3z"/><path fill="#FF7058" d="M63.2 61.3V80c0 1.5 1.7 2.3 2.9 1.4L77.9 72c.9-.7.9-2.1 0-2.8l-11.8-9.4c-1.2-.9-2.9 0-2.9 1.5z"/></svg>