<svg xmlns="http://www.w3.org/2000/svg" width="141.7" height="141.7"><circle fill="#324A5E" cx="70.8" cy="70.9" r="70.9"/><path fill="#FFD05B" d="M28.2 56.4h85.2v55.7H28.2z"/><path fill="#84DBFF" d="M70.9 23.9L28.2 56.4l42.7 32.4 42.6-32.4z"/><path fill="#FF7058" d="M113.5 56.4l-10.7 8.1-31.9 24.3-32-24.3-10.7-8.1 10.7-8.2 21.9-16.6 10.1-7.7L81 31.6l21.8 16.6z"/><path fill="#FFF" d="M93.5 31.6H38.9v32.9l32 24.3 31.9-24.3V40.9h-9.3z"/><path fill="#CED5E0" d="M93.5 31.6v9.3h9.3z"/><path fill="#F9B54C" d="M63.2 78.4l-35 33.7h85.3l-35-33.7z"/><path fill="#4CDBC4" d="M48.6 45.8H94v4.1H48.6zM48.6 54.9H94V59H48.6zM48.6 64h27.6v4.1H48.6z"/></svg>